ISO-10303-21;
HEADER;
FILE_DESCRIPTION (( 'STEP AP214' ),
    '1' );
FILE_NAME ('rightbottom.STEP',
    '2026-07-13T06:13:29',
    ( '' ),
    ( '' ),
    'SwSTEP 2.0',
    'SolidWorks 2020',
    '' );
FILE_SCHEMA (( 'AUTOMOTIVE_DESIGN' ));
ENDSEC;

DATA;
#1 = CARTESIAN_POINT ( 'NONE',  ( -119.6801877262292777, 45.21393283292060516, 96.00135531530527544 ) ) ;
#2 = CIRCLE ( 'NONE', #876, 1.477000000000006086 ) ;
#3 = ADVANCED_FACE ( 'NONE', ( #338, #625 ), #323, .F. ) ;
#4 = DIRECTION ( 'NONE',  ( -0.8660342776337551784, -0.4999846297271345330, -0.000000000000000000 ) ) ;
#5 = CIRCLE ( 'NONE', #435, 1.100000000000003642 ) ;
#6 = CARTESIAN_POINT ( 'NONE',  ( -119.7807958463857432, 46.89572308252408561, 45.94711272034273719 ) ) ;
#7 = AXIS2_PLACEMENT_3D ( 'NONE', #1164, #276, #1066 ) ;
#8 = CARTESIAN_POINT ( 'NONE',  ( 0.000000000000000000, -72.40000343881547451, 53.00000000000000711 ) ) ;
#9 = CARTESIAN_POINT ( 'NONE',  ( 0.000000000000000000, 102.5999965611845397, 53.79999999999999716 ) ) ;
#10 = CARTESIAN_POINT ( 'NONE',  ( -121.7555956197893181, 47.91730749277814994, 43.82559980505726571 ) ) ;
#11 = PRODUCT_DEFINITION ( 'UNKNOWN', '', #375, #415 ) ;
#12 = VERTEX_POINT ( 'NONE', #159 ) ;
#13 = FILL_AREA_STYLE ('',( #1198 ) ) ;
#14 = DIRECTION ( 'NONE',  ( -0.000000000000000000, -0.000000000000000000, -1.000000000000000000 ) ) ;
#15 = AXIS2_PLACEMENT_3D ( 'NONE', #763, #104, #549 ) ;
#16 = AXIS2_PLACEMENT_3D ( 'NONE', #752, #1124, #1045 ) ;
#17 = DIRECTION ( 'NONE',  ( -1.000000000000000000, 0.000000000000000000, 0.000000000000000000 ) ) ;
#18 = CARTESIAN_POINT ( 'NONE',  ( 0.000000000000000000, -72.40000343881547451, 3.000000000000000000 ) ) ;
#19 = DIRECTION ( 'NONE',  ( -1.000000000000000000, 0.000000000000000000, 0.000000000000000000 ) ) ;
#20 = EDGE_LOOP ( 'NONE', ( #545, #1003, #818, #499 ) ) ;
#21 = PRODUCT_CONTEXT ( 'NONE', #828, 'mechanical' ) ;
#22 = AXIS2_PLACEMENT_3D ( 'NONE', #570, #975, #1067 ) ;
#23 = EDGE_CURVE ( 'NONE', #311, #796, #711, .T. ) ;
#24 = CARTESIAN_POINT ( 'NONE',  ( -116.9775279843676259, 46.05452454555888409, 97.32112069894722595 ) ) ;
#25 = CARTESIAN_POINT ( 'NONE',  ( 0.000000000000000000, 103.2999965611845425, 104.0000000000000000 ) ) ;
#26 = CONICAL_SURFACE ( 'NONE', #609, 174.2000000000001876, 0.7853981633975176679 ) ;
#27 = EDGE_LOOP ( 'NONE', ( #241, #69, #801, #982 ) ) ;
#28 = DIRECTION ( 'NONE',  ( 0.000000000000000000, 0.000000000000000000, -1.000000000000000000 ) ) ;
#29 = VERTEX_POINT ( 'NONE', #735 ) ;
#30 = EDGE_CURVE ( 'NONE', #480, #805, #1135, .T. ) ;
#31 = DIRECTION ( 'NONE',  ( 1.000000000000000000, 0.000000000000000000, 0.000000000000000000 ) ) ;
#32 = AXIS2_PLACEMENT_3D ( 'NONE', #146, #944, #169 ) ;
#33 = ADVANCED_FACE ( 'NONE', ( #632 ), #942, .F. ) ;
#34 = CARTESIAN_POINT ( 'NONE',  ( -92.68444238722507578, 70.70423651686009237, 3.000000000000000000 ) ) ;
#35 = EDGE_LOOP ( 'NONE', ( #1021, #1197, #710, #841 ) ) ;
#36 = B_SPLINE_CURVE_WITH_KNOTS ( 'NONE', 3,
 ( #843, #920, #332, #1243, #526, #949, #176, #626, #728, #1044, #936, #1128, #444, #47, #640, #243, #619, #723, #1144, #927, #836, #1023, #347, #751 ),
 .UNSPECIFIED., .F., .F.,
 ( 4, 2, 2, 2, 2, 2, 2, 2, 2, 2, 2, 4 ),
 ( 0.001712097630548751331, 0.002417150759121386265, 0.003122203887694021199, 0.003827257016266655699, 0.004532310144839291066, 0.005237363273411925133, 0.005589889837698249105, 0.005942416401984572209, 0.006294942966270896181, 0.006647469530557219286, 0.006999996094843544125, 0.007352522659129867230 ),
 .UNSPECIFIED. ) ;
#37 = EDGE_LOOP ( 'NONE', ( #52, #66 ) ) ;
#38 = LINE ( 'NONE', #800, #529 ) ;
#39 = ADVANCED_FACE ( 'NONE', ( #352 ), #1142, .T. ) ;
#40 = VERTEX_POINT ( 'NONE', #358 ) ;
#41 = CARTESIAN_POINT ( 'NONE',  ( 0.000000000000000000, -72.40000343881547451, 214.9999999999989768 ) ) ;
#42 = ORIENTED_EDGE ( 'NONE', *, *, #646, .T. ) ;
#43 = LINE ( 'NONE', #1006, #1061 ) ;
#44 = ORIENTED_EDGE ( 'NONE', *, *, #908, .T. ) ;
#45 = CARTESIAN_POINT ( 'NONE',  ( -75.61717728096662938, 80.55762274531630851, 3.000000000000000000 ) ) ;
#46 = ORIENTED_EDGE ( 'NONE', *, *, #301, .F. ) ;
#47 = CARTESIAN_POINT ( 'NONE',  ( -119.1916416320384684, 47.33929003980827588, 94.84990450917524640 ) ) ;
#48 = VECTOR ( 'NONE', #58, 1000.000000000000000 ) ;
#49 = ORIENTED_EDGE ( 'NONE', *, *, #908, .F. ) ;
#50 = FACE_BOUND ( 'NONE', #665, .T. ) ;
#51 = DIRECTION ( 'NONE',  ( 1.000000000000000000, 0.000000000000000000, 0.000000000000000000 ) ) ;
#52 = ORIENTED_EDGE ( 'NONE', *, *, #53, .F. ) ;
#53 = EDGE_CURVE ( 'NONE', #348, #1028, #539, .T. ) ;
#54 = VERTEX_POINT ( 'NONE', #448 ) ;
#55 = AXIS2_PLACEMENT_3D ( 'NONE', #187, #475, #297 ) ;
#56 = DIRECTION ( 'NONE',  ( 1.000000000000000000, 0.000000000000000000, -0.000000000000000000 ) ) ;
#57 = ORIENTED_EDGE ( 'NONE', *, *, #414, .T. ) ;
#58 = DIRECTION ( 'NONE',  ( 0.000000000000000000, 0.000000000000000000, 1.000000000000000000 ) ) ;
#59 = PLANE ( 'NONE',  #158 ) ;
#60 = ORIENTED_EDGE ( 'NONE', *, *, #1070, .F. ) ;
#61 =( GEOMETRIC_REPRESENTATION_CONTEXT ( 3 ) GLOBAL_UNCERTAINTY_ASSIGNED_CONTEXT ( ( #134 ) ) GLOBAL_UNIT_ASSIGNED_CONTEXT ( ( #108, #487, #221 ) ) REPRESENTATION_CONTEXT ( 'NONE', 'WORKASPACE' ) );
#62 = CIRCLE ( 'NONE', #280, 174.1999999999999886 ) ;
#63 = ORIENTED_EDGE ( 'NONE', *, *, #256, .F. ) ;
#64 = FACE_BOUND ( 'NONE', #503, .T. ) ;
#65 = VECTOR ( 'NONE', #290, 1000.000000000000000 ) ;
#66 = ORIENTED_EDGE ( 'NONE', *, *, #401, .F. ) ;
#67 = FACE_OUTER_BOUND ( 'NONE', #627, .T. ) ;
#68 = DIRECTION ( 'NONE',  ( 0.000000000000000000, 0.000000000000000000, 1.000000000000000000 ) ) ;
#69 = ORIENTED_EDGE ( 'NONE', *, *, #555, .T. ) ;
#70 = CARTESIAN_POINT ( 'NONE',  ( 0.000000000000000000, -72.40000343881547451, 104.0000000000000000 ) ) ;
#71 = DIRECTION ( 'NONE',  ( 0.000000000000000000, 0.000000000000000000, -1.000000000000000000 ) ) ;
#72 = CARTESIAN_POINT ( 'NONE',  ( 0.000000000000000000, -72.40000343881547451, 102.0000000000000000 ) ) ;
#73 = CARTESIAN_POINT ( 'NONE',  ( -175.0000000000000284, -72.40000343881547451, 39.99999999999996447 ) ) ;
#74 = AXIS2_PLACEMENT_3D ( 'NONE', #295, #174, #558 ) ;
#75 = ORIENTED_EDGE ( 'NONE', *, *, #758, .F. ) ;
#76 = DIRECTION ( 'NONE',  ( 0.4999846297271346995, -0.8660342776337550674, 0.000000000000000000 ) ) ;
#77 = LINE ( 'NONE', #879, #481 ) ;
#78 = ORIENTED_EDGE ( 'NONE', *, *, #865, .F. ) ;
#79 = FACE_BOUND ( 'NONE', #250, .T. ) ;
#80 = AXIS2_PLACEMENT_3D ( 'NONE', #1193, #1014, #300 ) ;
#81 = CARTESIAN_POINT ( 'NONE',  ( -120.3153371425997875, 48.28807912218735510, 53.00000000000000711 ) ) ;
#82 = DIRECTION ( 'NONE',  ( 1.000000000000000000, 0.000000000000000000, 0.000000000000000000 ) ) ;
#83 = EDGE_CURVE ( 'NONE', #746, #1111, #1183, .T. ) ;
#84 = DIRECTION ( 'NONE',  ( -0.000000000000000000, -0.000000000000000000, 1.000000000000000000 ) ) ;
#85 = DIRECTION ( 'NONE',  ( 1.000000000000000000, 0.000000000000000000, 0.000000000000000000 ) ) ;
#86 = FACE_BOUND ( 'NONE', #488, .T. ) ;
#87 = FACE_OUTER_BOUND ( 'NONE', #346, .T. ) ;
#88 = DIRECTION ( 'NONE',  ( 0.000000000000000000, 0.000000000000000000, 1.000000000000000000 ) ) ;
#89 = CYLINDRICAL_SURFACE ( 'NONE', #7, 1.477000000000006086 ) ;
#90 = CARTESIAN_POINT ( 'NONE',  ( -119.9220054569337321, 45.86424159392163347, 95.37281566859489601 ) ) ;
#91 = AXIS2_PLACEMENT_3D ( 'NONE', #535, #737, #438 ) ;
#92 = ORIENTED_EDGE ( 'NONE', *, *, #366, .T. ) ;
#93 = CARTESIAN_POINT ( 'NONE',  ( -119.4305155473939237, 49.48270608305259799, 44.35697825053864563 ) ) ;
#94 = PLANE ( 'NONE',  #880 ) ;
#95 = CARTESIAN_POINT ( 'NONE',  ( -121.3253341834504511, 47.19776142114503870, 44.63726376402705398 ) ) ;
#96 = EDGE_LOOP ( 'NONE', ( #724, #635 ) ) ;
#97 = CARTESIAN_POINT ( 'NONE',  ( 0.000000000000000000, -72.40000343881547451, 0.000000000000000000 ) ) ;
#98 = EDGE_CURVE ( 'NONE', #410, #1041, #779, .T. ) ;
#99 = CARTESIAN_POINT ( 'NONE',  ( -121.7091574856981282, 48.78919387941847674, 43.24456398766224652 ) ) ;
#100 = DIRECTION ( 'NONE',  ( 1.000000000000000000, 0.000000000000000000, 0.000000000000000000 ) ) ;
#101 = DIRECTION ( 'NONE',  ( 0.000000000000000000, 0.000000000000000000, 1.000000000000000000 ) ) ;
#102 = VERTEX_POINT ( 'NONE', #1149 ) ;
#103 = DIRECTION ( 'NONE',  ( 0.8660342776337551784, 0.4999846297271345330, 0.000000000000000000 ) ) ;
#104 = DIRECTION ( 'NONE',  ( 0.000000000000000000, 0.000000000000000000, 1.000000000000000000 ) ) ;
#105 = EDGE_CURVE ( 'NONE', #722, #746, #849, .T. ) ;
#106 = CARTESIAN_POINT ( 'NONE',  ( -120.2514741053020373, 49.76687982879096950, 43.57899950544497614 ) ) ;
#107 = DIRECTION ( 'NONE',  ( 0.000000000000000000, 0.000000000000000000, 1.000000000000000000 ) ) ;
#108 =( LENGTH_UNIT ( ) NAMED_UNIT ( * ) SI_UNIT ( .MILLI., .METRE. ) );
#109 = ORIENTED_EDGE ( 'NONE', *, *, #960, .T. ) ;
#110 = CARTESIAN_POINT ( 'NONE',  ( -117.4352034495573207, 44.97918899103725465, 97.76118483023083172 ) ) ;
#111 = CARTESIAN_POINT ( 'NONE',  ( -121.7923371425997914, 48.28807912218735510, 43.53867299327191631 ) ) ;
#112 = CARTESIAN_POINT ( 'NONE',  ( -92.68444238722507578, 70.70423651686009237, 3.000000000000000000 ) ) ;
#113 = CARTESIAN_POINT ( 'NONE',  ( -120.3775735787188097, 46.80923384710009572, 45.58454133084624260 ) ) ;
#114 = EDGE_CURVE ( 'NONE', #746, #1089, #77, .T. ) ;
#115 = EDGE_LOOP ( 'NONE', ( #521, #620, #850, #648 ) ) ;
#116 = CARTESIAN_POINT ( 'NONE',  ( -155.0000000000000000, -72.40000343881547451, 3.000000000000000000 ) ) ;
#117 = VECTOR ( 'NONE', #249, 1000.000000000000000 ) ;
#118 = AXIS2_PLACEMENT_3D ( 'NONE', #72, #440, #739 ) ;
#119 = LINE ( 'NONE', #894, #240 ) ;
#120 = ADVANCED_FACE ( 'NONE', ( #1058 ), #26, .F. ) ;
#121 = VECTOR ( 'NONE', #675, 1000.000000000000000 ) ;
#122 = AXIS2_PLACEMENT_3D ( 'NONE', #1085, #495, #209 ) ;
#123 = FACE_OUTER_BOUND ( 'NONE', #956, .T. ) ;
#124 = VECTOR ( 'NONE', #905, 1000.000000000000000 ) ;
#125 = ORIENTED_EDGE ( 'NONE', *, *, #405, .T. ) ;
#126 = AXIS2_PLACEMENT_3D ( 'NONE', #753, #537, #254 ) ;
#127 = AXIS2_PLACEMENT_3D ( 'NONE', #787, #964, #674 ) ;
#128 = CARTESIAN_POINT ( 'NONE',  ( -73.76400932125693544, 81.34114284186829025, 0.000000000000000000 ) ) ;
#129 = ORIENTED_EDGE ( 'NONE', *, *, #815, .T. ) ;
#130 = EDGE_CURVE ( 'NONE', #1109, #1031, #720, .T. ) ;
#131 = CARTESIAN_POINT ( 'NONE',  ( -165.0000000000000000, -72.40000343881547451, 50.00000000000000000 ) ) ;
#132 = ORIENTED_EDGE ( 'NONE', *, *, #873, .T. ) ;
#133 = DIRECTION ( 'NONE',  ( 0.000000000000000000, 0.000000000000000000, 1.000000000000000000 ) ) ;
#134 = UNCERTAINTY_MEASURE_WITH_UNIT (LENGTH_MEASURE( 1.000000000000000082E-05 ), #108, 'distance_accuracy_value', 'NONE');
#135 = ORIENTED_EDGE ( 'NONE', *, *, #437, .F. ) ;
#136 = DIRECTION ( 'NONE',  ( 1.000000000000000000, 0.000000000000000000, 0.000000000000000000 ) ) ;
#137 = ORIENTED_EDGE ( 'NONE', *, *, #891, .F. ) ;
#138 = CARTESIAN_POINT ( 'NONE',  ( -155.0000000000000000, -72.40000343881547451, 0.000000000000000000 ) ) ;
#139 = ORIENTED_EDGE ( 'NONE', *, *, #846, .T. ) ;
#140 = CARTESIAN_POINT ( 'NONE',  ( -175.0000000000000284, -72.40000343881547451, 53.79999999999999716 ) ) ;
#141 = ORIENTED_EDGE ( 'NONE', *, *, #692, .F. ) ;
#142 = CARTESIAN_POINT ( 'NONE',  ( -117.0281005066810565, 45.32892584348164888, 3.000000000000000000 ) ) ;
#143 = DIRECTION ( 'NONE',  ( -1.000000000000000000, 0.000000000000000000, 0.000000000000000000 ) ) ;
#144 = ADVANCED_FACE ( 'NONE', ( #263 ), #288, .F. ) ;
#145 = AXIS2_PLACEMENT_3D ( 'NONE', #1184, #477, #17 ) ;
#146 = CARTESIAN_POINT ( 'NONE',  ( -118.5051005066810603, 45.32892584348164888, 0.000000000000000000 ) ) ;
#147 = ORIENTED_EDGE ( 'NONE', *, *, #815, .F. ) ;
#148 = LINE ( 'NONE', #1032, #172 ) ;
#149 = DIRECTION ( 'NONE',  ( -0.4999846297271345330, 0.8660342776337551784, 0.000000000000000000 ) ) ;
#150 = EDGE_CURVE ( 'NONE', #696, #153, #371, .T. ) ;
#151 = DIRECTION ( 'NONE',  ( -1.000000000000000000, 0.000000000000000000, 0.000000000000000000 ) ) ;
#152 = FACE_BOUND ( 'NONE', #37, .T. ) ;
#153 = VERTEX_POINT ( 'NONE', #1254 ) ;
#154 = B_SPLINE_CURVE_WITH_KNOTS ( 'NONE', 3,
 ( #970, #1261, #90, #872, #776, #460, #1, #864, #1176, #679, #538, #948, #1108, #884, #791, #576, #581, #981, #222, #110, #808, #683, #1086, #517, #476, #24 ),
 .UNSPECIFIED., .F., .F.,
 ( 4, 2, 2, 2, 2, 2, 2, 2, 2, 2, 2, 2, 4 ),
 ( 0.007352522659129867230, 0.007705329509791269439, 0.008058136360452671648, 0.008763750061775476066, 0.009469363763098282219, 0.01017497746442108664, 0.01052778431508248451, 0.01088059116574388238, 0.01123339801640528199, 0.01158620486706668160, 0.01193901171772807947, 0.01229181856838947734, 0.01299743226971229390 ),
 .UNSPECIFIED. ) ;
#155 = DIRECTION ( 'NONE',  ( -0.000000000000000000, -0.000000000000000000, 1.000000000000000000 ) ) ;
#156 = CARTESIAN_POINT ( 'NONE',  ( 0.000000000000000000, -72.40000343881547451, -121.1999999999939348 ) ) ;
#157 = EDGE_CURVE ( 'NONE', #799, #947, #1166, .T. ) ;
#158 = AXIS2_PLACEMENT_3D ( 'NONE', #1033, #149, #845 ) ;
#159 = CARTESIAN_POINT ( 'NONE',  ( -75.61717728096664359, 80.55762274531630851, 0.000000000000000000 ) ) ;
#160 = EDGE_LOOP ( 'NONE', ( #203, #938, #57, #926 ) ) ;
#161 = DIRECTION ( 'NONE',  ( 0.000000000000000000, 0.000000000000000000, 1.000000000000000000 ) ) ;
#162 = VECTOR ( 'NONE', #667, 1000.000000000000000 ) ;
#163 = VERTEX_POINT ( 'NONE', #471 ) ;
#164 = CARTESIAN_POINT ( 'NONE',  ( 0.000000000000000000, -72.40000343881547451, 53.00000000000000711 ) ) ;
#165 = FACE_OUTER_BOUND ( 'NONE', #816, .T. ) ;
#166 = DIRECTION ( 'NONE',  ( 0.000000000000000000, 0.000000000000000000, -1.000000000000000000 ) ) ;
#167 = ADVANCED_FACE ( 'NONE', ( #756 ), #189, .T. ) ;
#168 = ORIENTED_EDGE ( 'NONE', *, *, #1035, .T. ) ;
#169 = DIRECTION ( 'NONE',  ( 1.000000000000000000, 0.000000000000000000, 0.000000000000000000 ) ) ;
#170 = CARTESIAN_POINT ( 'NONE',  ( -116.9775279843710791, 46.05452454555432240, 98.99999999999998579 ) ) ;
#171 = DIRECTION ( 'NONE',  ( -0.000000000000000000, -0.000000000000000000, -1.000000000000000000 ) ) ;
#172 = VECTOR ( 'NONE', #528, 1000.000000000000114 ) ;
#173 = ORIENTED_EDGE ( 'NONE', *, *, #542, .F. ) ;
#174 = DIRECTION ( 'NONE',  ( -0.000000000000000000, -0.000000000000000000, 1.000000000000000000 ) ) ;
#175 = CIRCLE ( 'NONE', #995, 165.0000000000000000 ) ;
#176 = CARTESIAN_POINT ( 'NONE',  ( -117.5702776196248891, 47.24948320215441555, 96.05385901175672814 ) ) ;
#177 = EDGE_CURVE ( 'NONE', #1016, #1228, #1059, .T. ) ;
#178 = AXIS2_PLACEMENT_3D ( 'NONE', #670, #84, #967 ) ;
#179 = CARTESIAN_POINT ( 'NONE',  ( -89.26827850878089521, 63.09261766642882918, 0.000000000000000000 ) ) ;
#180 = EDGE_CURVE ( 'NONE', #320, #247, #490, .T. ) ;
#181 = ORIENTED_EDGE ( 'NONE', *, *, #623, .T. ) ;
#182 = AXIS2_PLACEMENT_3D ( 'NONE', #645, #1165, #1050 ) ;
#183 = DIRECTION ( 'NONE',  ( -1.000000000000000000, 0.000000000000000000, 0.000000000000000000 ) ) ;
#184 = VECTOR ( 'NONE', #434, 1000.000000000000000 ) ;
#185 = CARTESIAN_POINT ( 'NONE',  ( -119.9821005066810642, 45.32892584348164888, 3.000000000000000000 ) ) ;
#186 = DIRECTION ( 'NONE',  ( 1.000000000000000000, 0.000000000000000000, -0.000000000000000000 ) ) ;
#187 = CARTESIAN_POINT ( 'NONE',  ( 0.000000000000000000, -72.40000343881547451, 0.000000000000000000 ) ) ;
#188 = EDGE_CURVE ( 'NONE', #1203, #1094, #154, .T. ) ;
#189 = PLANE ( 'NONE',  #331 ) ;
#190 = CARTESIAN_POINT ( 'NONE',  ( -120.8514490516432289, 49.66887721267378453, 43.22726286709382748 ) ) ;
#191 = DIRECTION ( 'NONE',  ( -0.000000000000000000, -0.000000000000000000, -1.000000000000000000 ) ) ;
#192 = CARTESIAN_POINT ( 'NONE',  ( -119.5709186406768367, 46.99062280034650740, 46.02878703608852362 ) ) ;
#193 = CARTESIAN_POINT ( 'NONE',  ( -73.76400932125693544, 81.34114284186829025, 3.000000000000000000 ) ) ;
#194 = CARTESIAN_POINT ( 'NONE',  ( 0.000000000000000000, -72.40000343881547451, 263.7999999999978513 ) ) ;
#195 = CARTESIAN_POINT ( 'NONE',  ( -118.8751162963184811, 48.65819721066387160, 45.33451576808827355 ) ) ;
#196 = LINE ( 'NONE', #1186, #1162 ) ;
#197 = DIRECTION ( 'NONE',  ( 0.000000000000000000, 0.000000000000000000, 1.000000000000000000 ) ) ;
#198 = CARTESIAN_POINT ( 'NONE',  ( -178.0000000000000284, -72.40000343881547451, 102.0000000000000000 ) ) ;
#199 = ADVANCED_FACE ( 'NONE', ( #1079 ), #204, .F. ) ;
#200 = CARTESIAN_POINT ( 'NONE',  ( -118.8383371425997979, 48.47894990171747764, 45.48818978896836285 ) ) ;
#201 = DIRECTION ( 'NONE',  ( -0.000000000000000000, -0.000000000000000000, 1.000000000000000000 ) ) ;
#202 = DIRECTION ( 'NONE',  ( -1.000000000000000000, 0.000000000000000000, 0.000000000000000000 ) ) ;
#203 = ORIENTED_EDGE ( 'NONE', *, *, #105, .F. ) ;
#204 = CYLINDRICAL_SURFACE ( 'NONE', #823, 175.0000000000000284 ) ;
#205 = DIRECTION ( 'NONE',  ( 0.000000000000000000, 0.000000000000000000, 1.000000000000000000 ) ) ;
#206 = ADVANCED_FACE ( 'NONE', ( #988 ), #1189, .F. ) ;
#207 = SURFACE_SIDE_STYLE ('',( #284 ) ) ;
#208 = ORIENTED_EDGE ( 'NONE', *, *, #322, .T. ) ;
#209 = DIRECTION ( 'NONE',  ( 1.000000000000000000, 0.000000000000000000, 0.000000000000000000 ) ) ;
#210 = AXIS2_PLACEMENT_3D ( 'NONE', #450, #253, #1039 ) ;
#211 = EDGE_LOOP ( 'NONE', ( #1005, #919, #624, #1180, #399, #309, #811, #1084, #1038, #1219, #1154, #333, #941, #168, #835, #767, #1123, #896 ) ) ;
#212 = CARTESIAN_POINT ( 'NONE',  ( 0.000000000000000000, -72.40000343881547451, 53.00000000000000711 ) ) ;
#213 = VERTEX_POINT ( 'NONE', #198 ) ;
#214 = CONICAL_SURFACE ( 'NONE', #928, 176.5000000000000000, 0.7853981633974482790 ) ;
#215 = ORIENTED_EDGE ( 'NONE', *, *, #903, .T. ) ;
#216 = LINE ( 'NONE', #34, #491 ) ;
#217 = CIRCLE ( 'NONE', #433, 175.0000000000000284 ) ;
#218 = VECTOR ( 'NONE', #171, 1000.000000000000000 ) ;
#219 = EDGE_CURVE ( 'NONE', #531, #1138, #552, .T. ) ;
#220 = ORIENTED_EDGE ( 'NONE', *, *, #301, .T. ) ;
#221 =( NAMED_UNIT ( * ) SI_UNIT ( $, .STERADIAN. ) SOLID_ANGLE_UNIT ( ) );
#222 = CARTESIAN_POINT ( 'NONE',  ( -117.6182776287445506, 44.83139151730421190, 97.73601981775942704 ) ) ;
#223 = VECTOR ( 'NONE', #671, 1000.000000000000000 ) ;
#224 = CARTESIAN_POINT ( 'NONE',  ( -118.8383371425997836, 48.28807912218735510, 45.62419403270825313 ) ) ;
#225 = ORIENTED_EDGE ( 'NONE', *, *, #285, .F. ) ;
#226 = DIRECTION ( 'NONE',  ( -1.000000000000000000, 0.000000000000000000, 0.000000000000000000 ) ) ;
#227 = VECTOR ( 'NONE', #454, 1000.000000000000000 ) ;
#228 = EDGE_LOOP ( 'NONE', ( #714, #141, #854, #652 ) ) ;
#229 = DIRECTION ( 'NONE',  ( -0.000000000000000000, -0.000000000000000000, 1.000000000000000000 ) ) ;
#230 = ORIENTED_EDGE ( 'NONE', *, *, #855, .T. ) ;
#231 = CARTESIAN_POINT ( 'NONE',  ( 0.000000000000000000, -72.40000343881547451, 3.000000000000000000 ) ) ;
#232 = VERTEX_POINT ( 'NONE', #923 ) ;
#233 = ORIENTED_EDGE ( 'NONE', *, *, #157, .F. ) ;
#234 = CYLINDRICAL_SURFACE ( 'NONE', #458, 176.5000000000000000 ) ;
#235 = EDGE_CURVE ( 'NONE', #386, #480, #784, .T. ) ;
#236 = ORIENTED_EDGE ( 'NONE', *, *, #459, .T. ) ;
#237 = PLANE ( 'NONE',  #1049 ) ;
#238 = DIRECTION ( 'NONE',  ( 0.000000000000000000, 0.000000000000000000, -1.000000000000000000 ) ) ;
#239 = VECTOR ( 'NONE', #1074, 1000.000000000000000 ) ;
#240 = VECTOR ( 'NONE', #794, 1000.000000000000000 ) ;
#241 = ORIENTED_EDGE ( 'NONE', *, *, #984, .F. ) ;
#242 = PRODUCT_DEFINITION_SHAPE ( 'NONE', 'NONE',  #11 ) ;
#243 = CARTESIAN_POINT ( 'NONE',  ( -119.4726562297525874, 47.13085061213467242, 94.79903174015944955 ) ) ;
#244 = VERTEX_POINT ( 'NONE', #116 ) ;
#245 = LINE ( 'NONE', #1152, #48 ) ;
#246 = DIRECTION ( 'NONE',  ( 1.000000000000000000, 0.000000000000000000, 0.000000000000000000 ) ) ;
#247 = VERTEX_POINT ( 'NONE', #306 ) ;
#248 = EDGE_CURVE ( 'NONE', #404, #1136, #509, .T. ) ;
#249 = DIRECTION ( 'NONE',  ( -0.000000000000000000, -0.000000000000000000, -1.000000000000000000 ) ) ;
#250 = EDGE_LOOP ( 'NONE', ( #615, #1201, #1242, #378 ) ) ;
#251 = PLANE ( 'NONE',  #407 ) ;
#252 = ORIENTED_EDGE ( 'NONE', *, *, #684, .F. ) ;
#253 = DIRECTION ( 'NONE',  ( -0.000000000000000000, -0.000000000000000000, 1.000000000000000000 ) ) ;
#254 = DIRECTION ( 'NONE',  ( 1.000000000000000000, 0.000000000000000000, 0.000000000000000000 ) ) ;
#255 = VERTEX_POINT ( 'NONE', #138 ) ;
#256 = EDGE_CURVE ( 'NONE', #1235, #12, #690, .T. ) ;
#257 = ORIENTED_EDGE ( 'NONE', *, *, #984, .T. ) ;
#258 = CARTESIAN_POINT ( 'NONE',  ( -90.36827850878090373, 63.09261766642882918, 3.000000000000000000 ) ) ;
#259 = CARTESIAN_POINT ( 'NONE',  ( -165.0000000000000000, -72.40000343881547451, 53.00000000000000711 ) ) ;
#260 = CARTESIAN_POINT ( 'NONE',  ( -90.36827850878090373, 63.09261766642882918, 0.000000000000000000 ) ) ;
#261 = ORIENTED_EDGE ( 'NONE', *, *, #459, .F. ) ;
#262 = CARTESIAN_POINT ( 'NONE',  ( -118.5051005066810603, 45.32892584348164888, 3.000000000000000000 ) ) ;
#263 = FACE_OUTER_BOUND ( 'NONE', #457, .T. ) ;
#264 = CARTESIAN_POINT ( 'NONE',  ( 0.000000000000000000, 89.59999656118452549, 101.7999999999997698 ) ) ;
#265 = PLANE ( 'NONE',  #519 ) ;
#266 = CARTESIAN_POINT ( 'NONE',  ( -90.36827850878090373, 63.09261766642882918, 3.000000000000000000 ) ) ;
#267 = EDGE_LOOP ( 'NONE', ( #703, #676, #738, #672 ) ) ;
#268 = DIRECTION ( 'NONE',  ( 1.000000000000000000, 0.000000000000000000, 0.000000000000000000 ) ) ;
#269 = DIRECTION ( 'NONE',  ( 1.000000000000000000, 0.000000000000000000, 0.000000000000000000 ) ) ;
#270 = CIRCLE ( 'NONE', #1055, 1.100000000000003642 ) ;
#271 = CARTESIAN_POINT ( 'NONE',  ( -118.8383371425997836, 48.28807912218735510, 45.62419403270825313 ) ) ;
#272 = EDGE_CURVE ( 'NONE', #527, #12, #321, .T. ) ;
#273 = PLANE ( 'NONE',  #436 ) ;
#274 = DIRECTION ( 'NONE',  ( -0.000000000000000000, -0.7071067811865965336, -0.7071067811864985009 ) ) ;
#275 = EDGE_LOOP ( 'NONE', ( #147, #809, #727, #292 ) ) ;
#276 = DIRECTION ( 'NONE',  ( -0.000000000000000000, -0.000000000000000000, 1.000000000000000000 ) ) ;
#277 = AXIS2_PLACEMENT_3D ( 'NONE', #231, #14, #616 ) ;
#278 = CARTESIAN_POINT ( 'NONE',  ( -118.8383371425997836, 48.28807912218735510, 43.00000000000000000 ) ) ;
#279 = VECTOR ( 'NONE', #706, 1000.000000000000000 ) ;
#280 = AXIS2_PLACEMENT_3D ( 'NONE', #718, #419, #51 ) ;
#281 = ORIENTED_EDGE ( 'NONE', *, *, #180, .T. ) ;
#282 = CARTESIAN_POINT ( 'NONE',  ( -119.7229784172053400, 49.65158708748048610, 44.03163959795369209 ) ) ;
#283 = FACE_BOUND ( 'NONE', #1199, .T. ) ;
#284 = SURFACE_STYLE_FILL_AREA ( #1171 ) ;
#285 = EDGE_CURVE ( 'NONE', #1228, #1016, #382, .T. ) ;
#286 = AXIS2_PLACEMENT_3D ( 'NONE', #18, #868, #100 ) ;
#287 = ORIENTED_EDGE ( 'NONE', *, *, #272, .T. ) ;
#288 = CYLINDRICAL_SURFACE ( 'NONE', #182, 1.099999999999989875 ) ;
#289 = LINE ( 'NONE', #1159, #239 ) ;
#290 = DIRECTION ( 'NONE',  ( -1.000000000000000000, 0.000000000000000000, 0.000000000000000000 ) ) ;
#291 = PRESENTATION_STYLE_ASSIGNMENT (( #992 ) ) ;
#292 = ORIENTED_EDGE ( 'NONE', *, *, #1072, .T. ) ;
#293 = DIRECTION ( 'NONE',  ( 0.000000000000000000, 0.000000000000000000, -1.000000000000000000 ) ) ;
#294 = EDGE_CURVE ( 'NONE', #1267, #1098, #62, .T. ) ;
#295 = CARTESIAN_POINT ( 'NONE',  ( 0.000000000000000000, -72.40000343881547451, 88.79999999999991189 ) ) ;
#296 = CARTESIAN_POINT ( 'NONE',  ( -121.7416780568987349, 48.68519096894704035, 43.29486596112206342 ) ) ;
#297 = DIRECTION ( 'NONE',  ( 1.000000000000000000, 0.000000000000000000, 0.000000000000000000 ) ) ;
#298 = ORIENTED_EDGE ( 'NONE', *, *, #340, .F. ) ;
#299 =( NAMED_UNIT ( * ) PLANE_ANGLE_UNIT ( ) SI_UNIT ( $, .RADIAN. ) );
#300 = DIRECTION ( 'NONE',  ( 1.000000000000000000, 0.000000000000000000, 0.000000000000000000 ) ) ;
#301 = EDGE_CURVE ( 'NONE', #318, #1163, #1103, .T. ) ;
#302 = DIRECTION ( 'NONE',  ( -0.4999846297271346995, 0.8660342776337550674, 0.000000000000000000 ) ) ;
#303 = CARTESIAN_POINT ( 'NONE',  ( 0.000000000000000000, -72.40000343881547451, -121.1999999999939348 ) ) ;
#304 = CARTESIAN_POINT ( 'NONE',  ( -119.0571366189943490, 47.48289376944058660, 46.04300100570333143 ) ) ;
#305 = ORIENTED_EDGE ( 'NONE', *, *, #329, .T. ) ;
#306 = CARTESIAN_POINT ( 'NONE',  ( 0.000000000000000000, 105.5999965611845397, 0.000000000000000000 ) ) ;
#307 = VECTOR ( 'NONE', #1060, 1000.000000000000114 ) ;
#308 = CARTESIAN_POINT ( 'NONE',  ( -73.76400932125693544, 81.34114284186829025, 0.000000000000000000 ) ) ;
#309 = ORIENTED_EDGE ( 'NONE', *, *, #507, .T. ) ;
#310 = ORIENTED_EDGE ( 'NONE', *, *, #1150, .T. ) ;
#311 = VERTEX_POINT ( 'NONE', #427 ) ;
#312 = DIRECTION ( 'NONE',  ( 0.000000000000000000, 0.000000000000000000, 1.000000000000000000 ) ) ;
#313 = EDGE_CURVE ( 'NONE', #612, #341, #783, .T. ) ;
#314 = VECTOR ( 'NONE', #229, 1000.000000000000000 ) ;
#315 = EDGE_LOOP ( 'NONE', ( #979, #1187 ) ) ;
#316 = EDGE_CURVE ( 'NONE', #1203, #1228, #812, .T. ) ;
#317 = CIRCLE ( 'NONE', #770, 1.099999999999989875 ) ;
#318 = VERTEX_POINT ( 'NONE', #709 ) ;
#319 = DIRECTION ( 'NONE',  ( -1.000000000000000000, 0.000000000000000000, 0.000000000000000000 ) ) ;
#320 = VERTEX_POINT ( 'NONE', #1112 ) ;
#321 = LINE ( 'NONE', #45, #937 ) ;
#322 = EDGE_CURVE ( 'NONE', #404, #247, #336, .T. ) ;
#323 = CONICAL_SURFACE ( 'NONE', #1048, 161.7999999999997840, 0.7853981633974541632 ) ;
#324 = VECTOR ( 'NONE', #4, 1000.000000000000114 ) ;
#325 = LINE ( 'NONE', #715, #314 ) ;
#326 = ORIENTED_EDGE ( 'NONE', *, *, #613, .T. ) ;
#327 = DIRECTION ( 'NONE',  ( 1.000000000000000000, 0.000000000000000000, 0.000000000000000000 ) ) ;
#328 = CIRCLE ( 'NONE', #762, 178.0000000000000284 ) ;
#329 = EDGE_CURVE ( 'NONE', #330, #540, #732, .T. ) ;
#330 = VERTEX_POINT ( 'NONE', #362 ) ;
#331 = AXIS2_PLACEMENT_3D ( 'NONE', #1157, #466, #564 ) ;
#332 = CARTESIAN_POINT ( 'NONE',  ( -117.0141677462524115, 46.42435083634352111, 97.03208376289506987 ) ) ;
#333 = ORIENTED_EDGE ( 'NONE', *, *, #489, .F. ) ;
#334 = DIRECTION ( 'NONE',  ( -1.000000000000000000, 0.000000000000000000, 0.000000000000000000 ) ) ;
#335 = AXIS2_PLACEMENT_3D ( 'NONE', #1017, #312, #802 ) ;
#336 = LINE ( 'NONE', #610, #1227 ) ;
#337 = VECTOR ( 'NONE', #820, 1000.000000000000000 ) ;
#338 = FACE_BOUND ( 'NONE', #862, .T. ) ;
#339 = FACE_OUTER_BOUND ( 'NONE', #754, .T. ) ;
#340 = EDGE_CURVE ( 'NONE', #255, #244, #629, .T. ) ;
#341 = VERTEX_POINT ( 'NONE', #73 ) ;
#342 = LINE ( 'NONE', #170, #1260 ) ;
#343 = CARTESIAN_POINT ( 'NONE',  ( -72.66400932125694112, 81.34114284186829025, 3.000000000000000000 ) ) ;
#344 = EDGE_LOOP ( 'NONE', ( #431, #139, #1147, #875 ) ) ;
#345 = CARTESIAN_POINT ( 'NONE',  ( 0.000000000000000000, -72.40000343881547451, 102.0000000000000000 ) ) ;
#346 = EDGE_LOOP ( 'NONE', ( #1130, #866, #92, #600 ) ) ;
#347 = CARTESIAN_POINT ( 'NONE',  ( -119.9315279843712005, 46.15088212349419194, 95.16465621834271360 ) ) ;
#348 = VERTEX_POINT ( 'NONE', #831 ) ;
#349 = DIRECTION ( 'NONE',  ( 0.000000000000000000, 0.000000000000000000, 1.000000000000000000 ) ) ;
#350 = LINE ( 'NONE', #156, #662 ) ;
#351 = EDGE_CURVE ( 'NONE', #1089, #1267, #350, .T. ) ;
#352 = FACE_OUTER_BOUND ( 'NONE', #20, .T. ) ;
#353 = CARTESIAN_POINT ( 'NONE',  ( 0.000000000000000000, 102.5999965611844829, 88.79999999999991189 ) ) ;
#354 = LINE ( 'NONE', #744, #887 ) ;
#355 = DIRECTION ( 'NONE',  ( 0.000000000000000000, 0.000000000000000000, 1.000000000000000000 ) ) ;
#356 = VERTEX_POINT ( 'NONE', #1027 ) ;
#357 = LINE ( 'NONE', #1246, #1001 ) ;
#358 = CARTESIAN_POINT ( 'NONE',  ( -162.0000000000000000, -72.40000343881547451, 101.7999999999997698 ) ) ;
#359 = ORIENTED_EDGE ( 'NONE', *, *, #1101, .F. ) ;
#360 = FACE_OUTER_BOUND ( 'NONE', #27, .T. ) ;
#361 = PLANE ( 'NONE',  #647 ) ;
#362 = CARTESIAN_POINT ( 'NONE',  ( -88.58456842346257076, 63.60275544026329442, 3.000000000000000000 ) ) ;
#363 = VERTEX_POINT ( 'NONE', #179 ) ;
#364 = CARTESIAN_POINT ( 'NONE',  ( 0.000000000000000000, 105.0999965611845113, 102.0000000000000142 ) ) ;
#365 = CARTESIAN_POINT ( 'NONE',  ( 0.000000000000000000, -72.40000343881547451, 3.000000000000002665 ) ) ;
#366 = EDGE_CURVE ( 'NONE', #898, #508, #701, .T. ) ;
#367 = CARTESIAN_POINT ( 'NONE',  ( -120.4453431757720807, 49.76253781903953666, 43.44603706692823408 ) ) ;
#368 = CARTESIAN_POINT ( 'NONE',  ( -121.7923371425997914, 48.28807912218735510, 43.00000000000000000 ) ) ;
#369 = CIRCLE ( 'NONE', #210, 175.0000000000000284 ) ;
#370 = DIRECTION ( 'NONE',  ( -0.4999846297271346995, 0.8660342776337550674, -0.000000000000000000 ) ) ;
#371 = LINE ( 'NONE', #278, #227 ) ;
#372 = ADVANCED_FACE ( 'NONE', ( #165 ), #622, .F. ) ;
#373 = VECTOR ( 'NONE', #972, 1000.000000000000000 ) ;
#374 = EDGE_LOOP ( 'NONE', ( #425, #595, #813, #305 ) ) ;
#375 = PRODUCT_DEFINITION_FORMATION_WITH_SPECIFIED_SOURCE ( 'ANY', '', #734, .NOT_KNOWN. ) ;
#376 = FACE_OUTER_BOUND ( 'NONE', #115, .T. ) ;
#377 = FACE_OUTER_BOUND ( 'NONE', #998, .T. ) ;
#378 = ORIENTED_EDGE ( 'NONE', *, *, #803, .F. ) ;
#379 = DIRECTION ( 'NONE',  ( 0.000000000000000000, 0.000000000000000000, 1.000000000000000000 ) ) ;
#380 = DIRECTION ( 'NONE',  ( -1.000000000000000000, 0.000000000000000000, 0.000000000000000000 ) ) ;
#381 = VECTOR ( 'NONE', #28, 1000.000000000000000 ) ;
#382 = CIRCLE ( 'NONE', #492, 1.477000000000006086 ) ;
#383 = CARTESIAN_POINT ( 'NONE',  ( 0.000000000000000000, -72.40000343881547451, 53.00000000000000711 ) ) ;
#384 = CARTESIAN_POINT ( 'NONE',  ( -118.8383371425997268, 48.09704337496557258, 45.76031582354567462 ) ) ;
#385 = CIRCLE ( 'NONE', #286, 155.0000000000000000 ) ;
#386 = VERTEX_POINT ( 'NONE', #343 ) ;
#387 = DIRECTION ( 'NONE',  ( 0.000000000000000000, 0.000000000000000000, 1.000000000000000000 ) ) ;
#388 = CARTESIAN_POINT ( 'NONE',  ( 0.000000000000000000, 102.5999965611845113, 3.799999999999720046 ) ) ;
#389 = CARTESIAN_POINT ( 'NONE',  ( -174.1999999999999886, -72.40000343881547451, 53.00000000000000711 ) ) ;
#390 = CARTESIAN_POINT ( 'NONE',  ( -121.1949977220821637, 47.08980711783723905, 44.80587418135516486 ) ) ;
#391 = ORIENTED_EDGE ( 'NONE', *, *, #571, .T. ) ;
#392 = EDGE_CURVE ( 'NONE', #318, #774, #726, .T. ) ;
#393 = CLOSED_SHELL ( 'NONE', ( #605, #1200, #792, #1122, #713, #1141, #917, #969, #206, #999, #120, #824, #1208, #678, #199, #764, #782, #144, #1229, #837, #408, #167, #1080, #3, #372, #33, #1025, #924, #1114, #515, #669, #721, #39, #993 ) ) ;
#394 = CARTESIAN_POINT ( 'NONE',  ( -73.76400932125693544, 81.34114284186829025, 3.000000000000000000 ) ) ;
#395 = DIRECTION ( 'NONE',  ( 0.8660342776337550674, 0.4999846297271346995, -0.000000000000000000 ) ) ;
#396 = FACE_OUTER_BOUND ( 'NONE', #1231, .T. ) ;
#397 = LINE ( 'NONE', #1083, #485 ) ;
#398 = VECTOR ( 'NONE', #893, 1000.000000000000000 ) ;
#399 = ORIENTED_EDGE ( 'NONE', *, *, #437, .T. ) ;
#400 = APPLICATION_PROTOCOL_DEFINITION ( 'draft international standard', 'automotive_design', 1998, #793 ) ;
#401 = EDGE_CURVE ( 'NONE', #1028, #348, #5, .T. ) ;
#402 = DIRECTION ( 'NONE',  ( 0.000000000000000000, 0.000000000000000000, -1.000000000000000000 ) ) ;
#403 = DIRECTION ( 'NONE',  ( -0.000000000000000000, -0.000000000000000000, 1.000000000000000000 ) ) ;
#404 = VERTEX_POINT ( 'NONE', #1132 ) ;
#405 = EDGE_CURVE ( 'NONE', #386, #921, #940, .T. ) ;
#406 = CARTESIAN_POINT ( 'NONE',  ( -119.9821005066810642, 45.32892584348164888, 0.000000000000000000 ) ) ;
#407 = AXIS2_PLACEMENT_3D ( 'NONE', #634, #161, #56 ) ;
#408 = ADVANCED_FACE ( 'NONE', ( #642 ), #59, .T. ) ;
#409 = CARTESIAN_POINT ( 'NONE',  ( 0.000000000000000000, 102.5999965611845397, 102.0000000000000000 ) ) ;
#410 = VERTEX_POINT ( 'NONE', #456 ) ;
#411 = PLANE ( 'NONE',  #700 ) ;
#412 = EDGE_LOOP ( 'NONE', ( #1251, #510, #639, #281 ) ) ;
#413 = DIRECTION ( 'NONE',  ( -0.000000000000000000, -0.000000000000000000, 1.000000000000000000 ) ) ;
#414 = EDGE_CURVE ( 'NONE', #40, #1111, #523, .T. ) ;
#415 = PRODUCT_DEFINITION_CONTEXT ( 'detailed design', #793, 'design' ) ;
#416 = ORIENTED_EDGE ( 'NONE', *, *, #1218, .F. ) ;
#417 = DIRECTION ( 'NONE',  ( 0.000000000000000000, 0.000000000000000000, -1.000000000000000000 ) ) ;
#418 = EDGE_LOOP ( 'NONE', ( #63, #1011, #693, #287 ) ) ;
#419 = DIRECTION ( 'NONE',  ( 0.000000000000000000, 0.000000000000000000, 1.000000000000000000 ) ) ;
#420 = ORIENTED_EDGE ( 'NONE', *, *, #83, .T. ) ;
#421 = EDGE_CURVE ( 'NONE', #612, #1041, #1233, .T. ) ;
#422 = VERTEX_POINT ( 'NONE', #446 ) ;
#423 = VECTOR ( 'NONE', #930, 1000.000000000000000 ) ;
#424 = LINE ( 'NONE', #1237, #1196 ) ;
#425 = ORIENTED_EDGE ( 'NONE', *, *, #1018, .F. ) ;
#426 = FACE_BOUND ( 'NONE', #708, .T. ) ;
#427 = CARTESIAN_POINT ( 'NONE',  ( -175.0000000000000000, -72.40000343881547451, 3.799999999999720046 ) ) ;
#428 = ORIENTED_EDGE ( 'NONE', *, *, #1087, .T. ) ;
#429 = VECTOR ( 'NONE', #1125, 1000.000000000000000 ) ;
#430 = CARTESIAN_POINT ( 'NONE',  ( 0.000000000000000000, -72.40000343881547451, 104.0000000000000000 ) ) ;
#431 = ORIENTED_EDGE ( 'NONE', *, *, #366, .F. ) ;
#432 = FACE_BOUND ( 'NONE', #1015, .T. ) ;
#433 = AXIS2_PLACEMENT_3D ( 'NONE', #1110, #1211, #1012 ) ;
#434 = DIRECTION ( 'NONE',  ( -0.7071067811865515695, 0.000000000000000000, -0.7071067811865435759 ) ) ;
#435 = AXIS2_PLACEMENT_3D ( 'NONE', #266, #355, #651 ) ;
#436 = AXIS2_PLACEMENT_3D ( 'NONE', #985, #1190, #186 ) ;
#437 = EDGE_CURVE ( 'NONE', #40, #565, #861, .T. ) ;
#438 = DIRECTION ( 'NONE',  ( 1.000000000000000000, 0.000000000000000000, 0.000000000000000000 ) ) ;
#439 = VERTEX_POINT ( 'NONE', #1140 ) ;
#440 = DIRECTION ( 'NONE',  ( 0.000000000000000000, 0.000000000000000000, -1.000000000000000000 ) ) ;
#441 = DIRECTION ( 'NONE',  ( -0.000000000000000000, -0.7071067811865597852, -0.7071067811865352493 ) ) ;
#442 = ORIENTED_EDGE ( 'NONE', *, *, #1035, .F. ) ;
#443 = DIRECTION ( 'NONE',  ( -0.000000000000000000, -0.000000000000000000, -1.000000000000000000 ) ) ;
#444 = CARTESIAN_POINT ( 'NONE',  ( -118.9904304401566009, 47.43538205546841624, 94.92362189590906496 ) ) ;
#445 = CARTESIAN_POINT ( 'NONE',  ( -89.26827850878089521, 63.09261766642882918, 3.000000000000000000 ) ) ;
#446 = CARTESIAN_POINT ( 'NONE',  ( -117.0281005066810565, 45.32892584348164888, 0.000000000000000000 ) ) ;
#447 = ORIENTED_EDGE ( 'NONE', *, *, #177, .T. ) ;
#448 = CARTESIAN_POINT ( 'NONE',  ( -91.46827850878091226, 63.09261766642882918, 0.000000000000000000 ) ) ;
#449 = CYLINDRICAL_SURFACE ( 'NONE', #918, 1.099999999999989875 ) ;
#450 = CARTESIAN_POINT ( 'NONE',  ( 0.000000000000000000, -72.40000343881547451, 39.99999999999996447 ) ) ;
#451 = LINE ( 'NONE', #1265, #1266 ) ;
#452 = EDGE_CURVE ( 'NONE', #348, #54, #1245, .T. ) ;
#453 = CARTESIAN_POINT ( 'NONE',  ( -178.0000000000000284, -72.40000343881547451, 102.0000000000000000 ) ) ;
#454 = DIRECTION ( 'NONE',  ( -0.000000000000000000, -0.000000000000000000, 1.000000000000000000 ) ) ;
#455 = CARTESIAN_POINT ( 'NONE',  ( -121.7830007116094038, 48.48329661843720118, 43.40785545518275512 ) ) ;
#456 = CARTESIAN_POINT ( 'NONE',  ( 0.000000000000000000, 92.59999656118453970, 53.00000000000000711 ) ) ;
#457 = EDGE_LOOP ( 'NONE', ( #760, #461, #1262, #575 ) ) ;
#458 = AXIS2_PLACEMENT_3D ( 'NONE', #430, #1221, #1037 ) ;
#459 = EDGE_CURVE ( 'NONE', #356, #612, #175, .T. ) ;
#460 = CARTESIAN_POINT ( 'NONE',  ( -119.7692186749656571, 45.35937232409549580, 95.83592281705712423 ) ) ;
#461 = ORIENTED_EDGE ( 'NONE', *, *, #235, .T. ) ;
#462 = DIRECTION ( 'NONE',  ( 1.000000000000000000, 0.000000000000000000, 0.000000000000000000 ) ) ;
#463 = CARTESIAN_POINT ( 'NONE',  ( -121.6299737533223038, 47.59270392559270135, 44.14305620363756333 ) ) ;
#464 = ORIENTED_EDGE ( 'NONE', *, *, #741, .T. ) ;
#465 = EDGE_CURVE ( 'NONE', #213, #29, #328, .T. ) ;
#466 = DIRECTION ( 'NONE',  ( -0.8660342776337550674, -0.4999846297271346995, 0.000000000000000000 ) ) ;
#467 = EDGE_CURVE ( 'NONE', #363, #54, #270, .T. ) ;
#468 = LINE ( 'NONE', #383, #65 ) ;
#469 = CARTESIAN_POINT ( 'NONE',  ( -121.7923371425997914, 48.28807912218735510, 43.53867299327191631 ) ) ;
#470 = CARTESIAN_POINT ( 'NONE',  ( -71.51730331720412437, 73.45614166871951056, 0.000000000000000000 ) ) ;
#471 = CARTESIAN_POINT ( 'NONE',  ( -121.7923371425997914, 48.28807912218735510, 53.00000000000000711 ) ) ;
#472 = CARTESIAN_POINT ( 'NONE',  ( -120.7484824571153439, 49.70401166815111793, 43.27470019592228567 ) ) ;
#473 = EDGE_CURVE ( 'NONE', #356, #439, #451, .T. ) ;
#474 = CARTESIAN_POINT ( 'NONE',  ( -118.5051005066810603, 45.32892584348164888, -7.000000000000000000 ) ) ;
#475 = DIRECTION ( 'NONE',  ( 0.000000000000000000, 0.000000000000000000, 1.000000000000000000 ) ) ;
#476 = CARTESIAN_POINT ( 'NONE',  ( -116.9775279843706812, 45.86294906052330589, 97.45743218631535854 ) ) ;
#477 = DIRECTION ( 'NONE',  ( 0.000000000000000000, 0.000000000000000000, -1.000000000000000000 ) ) ;
#478 = CARTESIAN_POINT ( 'NONE',  ( -120.9039293631872027, 46.92308178542497643, 45.13017641045728112 ) ) ;
#479 = EDGE_CURVE ( 'NONE', #404, #255, #1217, .T. ) ;
#480 = VERTEX_POINT ( 'NONE', #1064 ) ;
#481 = VECTOR ( 'NONE', #857, 1000.000000000000000 ) ;
#482 = VECTOR ( 'NONE', #725, 1000.000000000000114 ) ;
#483 = CARTESIAN_POINT ( 'NONE',  ( 0.000000000000000000, 82.59999656118452549, 3.000000000000000000 ) ) ;
#484 = DIRECTION ( 'NONE',  ( 0.7071067811865965336, -0.000000000000000000, -0.7071067811864985009 ) ) ;
#485 = VECTOR ( 'NONE', #101, 1000.000000000000000 ) ;
#486 = ORIENTED_EDGE ( 'NONE', *, *, #98, .T. ) ;
#487 =( NAMED_UNIT ( * ) PLANE_ANGLE_UNIT ( ) SI_UNIT ( $, .RADIAN. ) );
#488 = EDGE_LOOP ( 'NONE', ( #904, #1134 ) ) ;
#489 = EDGE_CURVE ( 'NONE', #255, #320, #681, .T. ) ;
#490 = CIRCLE ( 'NONE', #657, 178.0000000000000284 ) ;
#491 = VECTOR ( 'NONE', #506, 1000.000000000000000 ) ;
#492 = AXIS2_PLACEMENT_3D ( 'NONE', #1214, #133, #916 ) ;
#493 = LINE ( 'NONE', #795, #768 ) ;
#494 = EDGE_LOOP ( 'NONE', ( #617, #583, #129, #829 ) ) ;
#495 = DIRECTION ( 'NONE',  ( 0.000000000000000000, 0.000000000000000000, 1.000000000000000000 ) ) ;
#496 = CIRCLE ( 'NONE', #1175, 162.0000000000000000 ) ;
#497 = EDGE_CURVE ( 'NONE', #796, #1109, #196, .T. ) ;
#498 = CYLINDRICAL_SURFACE ( 'NONE', #825, 165.0000000000000000 ) ;
#499 = ORIENTED_EDGE ( 'NONE', *, *, #1253, .F. ) ;
#500 = EDGE_CURVE ( 'NONE', #774, #531, #397, .T. ) ;
#501 = ORIENTED_EDGE ( 'NONE', *, *, #1065, .T. ) ;
#502 = CARTESIAN_POINT ( 'NONE',  ( -89.26827850878089521, 63.09261766642882918, 3.000000000000000000 ) ) ;
#503 = EDGE_LOOP ( 'NONE', ( #1222, #233 ) ) ;
#504 = DIRECTION ( 'NONE',  ( 0.000000000000000000, 0.000000000000000000, -1.000000000000000000 ) ) ;
#505 = ORIENTED_EDGE ( 'NONE', *, *, #248, .T. ) ;
#506 = DIRECTION ( 'NONE',  ( -0.000000000000000000, -0.000000000000000000, -1.000000000000000000 ) ) ;
#507 = EDGE_CURVE ( 'NONE', #565, #508, #1076, .T. ) ;
#508 = VERTEX_POINT ( 'NONE', #788 ) ;
#509 = LINE ( 'NONE', #483, #398 ) ;
#510 = ORIENTED_EDGE ( 'NONE', *, *, #479, .T. ) ;
#511 = UNCERTAINTY_MEASURE_WITH_UNIT (LENGTH_MEASURE( 1.000000000000000082E-05 ), #863, 'distance_accuracy_value', 'NONE');
#512 = VECTOR ( 'NONE', #484, 1000.000000000000000 ) ;
#513 = CARTESIAN_POINT ( 'NONE',  ( -120.3153371425997875, 48.28807912218735510, 53.00000000000000711 ) ) ;
#514 = EDGE_LOOP ( 'NONE', ( #966, #44, #695, #442 ) ) ;
#515 = ADVANCED_FACE ( 'NONE', ( #377 ), #214, .T. ) ;
#516 = CARTESIAN_POINT ( 'NONE',  ( 0.000000000000000000, -72.40000343881547451, 104.0000000000000000 ) ) ;
#517 = CARTESIAN_POINT ( 'NONE',  ( -117.0150052114271375, 45.65597607766505206, 97.57821247444020685 ) ) ;
#518 = ORIENTED_EDGE ( 'NONE', *, *, #623, .F. ) ;
#519 = AXIS2_PLACEMENT_3D ( 'NONE', #621, #628, #731 ) ;
#520 = LINE ( 'NONE', #1030, #1255 ) ;
#521 = ORIENTED_EDGE ( 'NONE', *, *, #646, .F. ) ;
#522 = DIRECTION ( 'NONE',  ( 1.000000000000000000, 0.000000000000000000, -0.000000000000000000 ) ) ;
#523 = LINE ( 'NONE', #946, #184 ) ;
#524 = STYLED_ITEM ( 'NONE', ( #291 ), #547 ) ;
#525 = EDGE_CURVE ( 'NONE', #213, #318, #978, .T. ) ;
#526 = CARTESIAN_POINT ( 'NONE',  ( -117.2251018789696957, 46.88988797761331284, 96.55227182812100750 ) ) ;
#527 = VERTEX_POINT ( 'NONE', #686 ) ;
#528 = DIRECTION ( 'NONE',  ( 0.4999846297271346995, -0.8660342776337550674, 0.000000000000000000 ) ) ;
#529 = VECTOR ( 'NONE', #403, 1000.000000000000000 ) ;
#530 = CARTESIAN_POINT ( 'NONE',  ( -88.58456842346257076, 63.60275544026329442, 3.000000000000000000 ) ) ;
#531 = VERTEX_POINT ( 'NONE', #584 ) ;
#532 = VECTOR ( 'NONE', #88, 1000.000000000000000 ) ;
#533 = CARTESIAN_POINT ( 'NONE',  ( -74.86400932125691554, 81.34114284186829025, 3.000000000000000000 ) ) ;
#534 = CIRCLE ( 'NONE', #178, 162.0000000000000000 ) ;
#535 = CARTESIAN_POINT ( 'NONE',  ( -118.4545279843710830, 46.05452454555432240, 98.99999999999998579 ) ) ;
#536 = CARTESIAN_POINT ( 'NONE',  ( -92.68444238722507578, 70.70423651686009237, 0.000000000000000000 ) ) ;
#537 = DIRECTION ( 'NONE',  ( -0.000000000000000000, -0.000000000000000000, 1.000000000000000000 ) ) ;
#538 = CARTESIAN_POINT ( 'NONE',  ( -118.8814147722396370, 44.62871872040808086, 96.98123148637091617 ) ) ;
#539 = CIRCLE ( 'NONE', #15, 1.100000000000003642 ) ;
#540 = VERTEX_POINT ( 'NONE', #579 ) ;
#541 = FACE_OUTER_BOUND ( 'NONE', #568, .T. ) ;
#542 = EDGE_CURVE ( 'NONE', #589, #696, #707, .T. ) ;
#543 = FACE_OUTER_BOUND ( 'NONE', #412, .T. ) ;
#544 = DIRECTION ( 'NONE',  ( 0.000000000000000000, 0.000000000000000000, 1.000000000000000000 ) ) ;
#545 = ORIENTED_EDGE ( 'NONE', *, *, #465, .T. ) ;
#546 = FACE_OUTER_BOUND ( 'NONE', #832, .T. ) ;
#547 = MANIFOLD_SOLID_BREP ( 'Stock-encloser new chamfer-1', #393 ) ;
#548 = PRESENTATION_LAYER_ASSIGNMENT (  '', '', ( #524 ) ) ;
#549 = DIRECTION ( 'NONE',  ( 1.000000000000000000, 0.000000000000000000, 0.000000000000000000 ) ) ;
#550 = AXIS2_PLACEMENT_3D ( 'NONE', #769, #955, #962 ) ;
#551 = CARTESIAN_POINT ( 'NONE',  ( 0.000000000000000000, -72.40000343881547451, -171.1999999999760007 ) ) ;
#552 = CIRCLE ( 'NONE', #80, 176.5000000000000000 ) ;
#553 = DIRECTION ( 'NONE',  ( 0.000000000000000000, 0.000000000000000000, 1.000000000000000000 ) ) ;
#554 = DIRECTION ( 'NONE',  ( 0.000000000000000000, 0.000000000000000000, 1.000000000000000000 ) ) ;
#555 = EDGE_CURVE ( 'NONE', #1008, #774, #1169, .T. ) ;
#556 = ORIENTED_EDGE ( 'NONE', *, *, #497, .F. ) ;
#557 = FACE_OUTER_BOUND ( 'NONE', #35, .T. ) ;
#558 = DIRECTION ( 'NONE',  ( 1.000000000000000000, 0.000000000000000000, 0.000000000000000000 ) ) ;
#559 = CARTESIAN_POINT ( 'NONE',  ( -118.9990009338801826, 48.97980339608159994, 45.01819199915895098 ) ) ;
#560 = FACE_OUTER_BOUND ( 'NONE', #211, .T. ) ;
#561 = CARTESIAN_POINT ( 'NONE',  ( 0.000000000000000000, -72.40000343881547451, 103.0000000000000568 ) ) ;
#562 = ORIENTED_EDGE ( 'NONE', *, *, #563, .T. ) ;
#563 = EDGE_CURVE ( 'NONE', #439, #796, #1099, .T. ) ;
#564 = DIRECTION ( 'NONE',  ( 0.4999846297271346995, -0.8660342776337550674, 0.000000000000000000 ) ) ;
#565 = VERTEX_POINT ( 'NONE', #601 ) ;
#566 = CARTESIAN_POINT ( 'NONE',  ( -121.4179618494959385, 49.27768278372602140, 43.10535943398606662 ) ) ;
#567 = FILL_AREA_STYLE_COLOUR ( '', #1097 ) ;
#568 = EDGE_LOOP ( 'NONE', ( #1096, #900, #847, #932 ) ) ;
#569 = PLANE ( 'NONE',  #1220 ) ;
#570 = CARTESIAN_POINT ( 'NONE',  ( -118.5051005066810603, 45.32892584348164888, 3.000000000000000000 ) ) ;
#571 = EDGE_CURVE ( 'NONE', #54, #363, #593, .T. ) ;
#572 = CARTESIAN_POINT ( 'NONE',  ( -120.1566939430072551, 49.75934795964319335, 43.65083775657135590 ) ) ;
#573 = CARTESIAN_POINT ( 'NONE',  ( 0.000000000000000000, -72.40000343881547451, 53.00000000000000711 ) ) ;
#574 = CARTESIAN_POINT ( 'NONE',  ( 0.000000000000000000, -72.40000343881547451, 104.0000000000000000 ) ) ;
#575 = ORIENTED_EDGE ( 'NONE', *, *, #613, .F. ) ;
#576 = CARTESIAN_POINT ( 'NONE',  ( -118.0207587363170489, 44.63884122829164625, 97.58633347385537604 ) ) ;
#577 = CARTESIAN_POINT ( 'NONE',  ( -121.6185998810152995, 48.99189542166271139, 43.16558498588529602 ) ) ;
#578 = LINE ( 'NONE', #303, #1156 ) ;
#579 = CARTESIAN_POINT ( 'NONE',  ( -88.58456842346257076, 63.60275544026329442, 0.000000000000000000 ) ) ;
#580 = ORIENTED_EDGE ( 'NONE', *, *, #479, .F. ) ;
#581 = CARTESIAN_POINT ( 'NONE',  ( -117.9195141961257605, 44.67325833662299317, 97.63397077191407902 ) ) ;
#582 = DIRECTION ( 'NONE',  ( 1.000000000000000000, 0.000000000000000000, 0.000000000000000000 ) ) ;
#583 = ORIENTED_EDGE ( 'NONE', *, *, #1018, .T. ) ;
#584 = CARTESIAN_POINT ( 'NONE',  ( -176.4999999999999716, -72.40000343881547451, 103.2000000000000313 ) ) ;
#585 = EDGE_CURVE ( 'NONE', #29, #247, #43, .T. ) ;
#586 = ORIENTED_EDGE ( 'NONE', *, *, #248, .F. ) ;
#587 = AXIS2_PLACEMENT_3D ( 'NONE', #1264, #107, #1160 ) ;
#588 = VECTOR ( 'NONE', #19, 1000.000000000000000 ) ;
#589 = VERTEX_POINT ( 'NONE', #1002 ) ;
#590 = CYLINDRICAL_SURFACE ( 'NONE', #935, 1.477000000000006086 ) ;
#591 = VERTEX_POINT ( 'NONE', #406 ) ;
#592 = EDGE_CURVE ( 'NONE', #994, #1239, #216, .T. ) ;
#593 = CIRCLE ( 'NONE', #335, 1.100000000000003642 ) ;
#594 = VECTOR ( 'NONE', #1054, 1000.000000000000000 ) ;
#595 = ORIENTED_EDGE ( 'NONE', *, *, #592, .F. ) ;
#596 = DIRECTION ( 'NONE',  ( -0.000000000000000000, -0.000000000000000000, 1.000000000000000000 ) ) ;
#597 = VERTEX_POINT ( 'NONE', #140 ) ;
#598 = SURFACE_SIDE_STYLE ('',( #781 ) ) ;
#599 = VECTOR ( 'NONE', #293, 1000.000000000000000 ) ;
#600 = ORIENTED_EDGE ( 'NONE', *, *, #507, .F. ) ;
#601 = CARTESIAN_POINT ( 'NONE',  ( -162.0000000000000000, -72.40000343881547451, 104.0000000000000000 ) ) ;
#602 = ORIENTED_EDGE ( 'NONE', *, *, #729, .T. ) ;
#603 = CARTESIAN_POINT ( 'NONE',  ( -75.61717728096662938, 80.55762274531630851, 0.000000000000000000 ) ) ;
#604 = AXIS2_PLACEMENT_3D ( 'NONE', #749, #1247, #380 ) ;
#605 = ADVANCED_FACE ( 'NONE', ( #123 ), #590, .F. ) ;
#606 = ORIENTED_EDGE ( 'NONE', *, *, #188, .F. ) ;
#607 = DIRECTION ( 'NONE',  ( 0.000000000000000000, 0.000000000000000000, 1.000000000000000000 ) ) ;
#608 = ORIENTED_EDGE ( 'NONE', *, *, #150, .F. ) ;
#609 = AXIS2_PLACEMENT_3D ( 'NONE', #365, #654, #1073 ) ;
#610 = CARTESIAN_POINT ( 'NONE',  ( 0.000000000000000000, -72.40000343881547451, 0.000000000000000000 ) ) ;
#611 = PRESENTATION_LAYER_ASSIGNMENT (  '', '', ( #631 ) ) ;
#612 = VERTEX_POINT ( 'NONE', #131 ) ;
#613 = EDGE_CURVE ( 'NONE', #921, #805, #1226, .T. ) ;
#614 = FACE_OUTER_BOUND ( 'NONE', #1215, .T. ) ;
#615 = ORIENTED_EDGE ( 'NONE', *, *, #1168, .F. ) ;
#616 = DIRECTION ( 'NONE',  ( -1.000000000000000000, 0.000000000000000000, 0.000000000000000000 ) ) ;
#617 = ORIENTED_EDGE ( 'NONE', *, *, #976, .T. ) ;
#618 = AXIS2_PLACEMENT_3D ( 'NONE', #258, #826, #1230 ) ;
#619 = CARTESIAN_POINT ( 'NONE',  ( -119.5567899162596746, 47.04455757812471717, 94.80054500921896476 ) ) ;
#620 = ORIENTED_EDGE ( 'NONE', *, *, #1065, .F. ) ;
#621 = CARTESIAN_POINT ( 'NONE',  ( 0.000000000000000000, -72.40000343881547451, 0.000000000000000000 ) ) ;
#622 = CYLINDRICAL_SURFACE ( 'NONE', #126, 1.477000000000006086 ) ;
#623 = EDGE_CURVE ( 'NONE', #29, #1163, #493, .T. ) ;
#624 = ORIENTED_EDGE ( 'NONE', *, *, #741, .F. ) ;
#625 = FACE_OUTER_BOUND ( 'NONE', #160, .T. ) ;
#626 = CARTESIAN_POINT ( 'NONE',  ( -117.8616222879381468, 47.41771482342263511, 95.72964091976848522 ) ) ;
#627 = EDGE_LOOP ( 'NONE', ( #1013, #1100, #1056, #60 ) ) ;
#628 = DIRECTION ( 'NONE',  ( 0.000000000000000000, 0.000000000000000000, 1.000000000000000000 ) ) ;
#629 = LINE ( 'NONE', #1250, #532 ) ;
#630 = EDGE_CURVE ( 'NONE', #1028, #363, #810, .T. ) ;
#631 = STYLED_ITEM ( 'NONE', ( #980 ), #1093 ) ;
#632 = FACE_OUTER_BOUND ( 'NONE', #804, .T. ) ;
#633 = ORIENTED_EDGE ( 'NONE', *, *, #630, .T. ) ;
#634 = CARTESIAN_POINT ( 'NONE',  ( 0.000000000000000000, -72.40000343881547451, 3.000000000000000000 ) ) ;
#635 = ORIENTED_EDGE ( 'NONE', *, *, #943, .F. ) ;
#636 = LINE ( 'NONE', #536, #482 ) ;
#637 = DIRECTION ( 'NONE',  ( -0.000000000000000000, -0.000000000000000000, -1.000000000000000000 ) ) ;
#638 = ORIENTED_EDGE ( 'NONE', *, *, #105, .T. ) ;
#639 = ORIENTED_EDGE ( 'NONE', *, *, #489, .T. ) ;
#640 = CARTESIAN_POINT ( 'NONE',  ( -119.2915939318725123, 47.27697435032240492, 94.82352231280829358 ) ) ;
#641 = LINE ( 'NONE', #112, #324 ) ;
#642 = FACE_OUTER_BOUND ( 'NONE', #275, .T. ) ;
#643 = ORIENTED_EDGE ( 'NONE', *, *, #316, .T. ) ;
#644 = DIRECTION ( 'NONE',  ( 1.000000000000000000, 0.000000000000000000, 0.000000000000000000 ) ) ;
#645 = CARTESIAN_POINT ( 'NONE',  ( -73.76400932125693544, 81.34114284186829025, 3.000000000000000000 ) ) ;
#646 = EDGE_CURVE ( 'NONE', #591, #799, #38, .T. ) ;
#647 = AXIS2_PLACEMENT_3D ( 'NONE', #1223, #1139, #1240 ) ;
#648 = ORIENTED_EDGE ( 'NONE', *, *, #1238, .T. ) ;
#649 = CYLINDRICAL_SURFACE ( 'NONE', #91, 1.477000000000006086 ) ;
#650 = DIRECTION ( 'NONE',  ( 1.000000000000000000, 0.000000000000000000, 0.000000000000000000 ) ) ;
#651 = DIRECTION ( 'NONE',  ( 1.000000000000000000, 0.000000000000000000, 0.000000000000000000 ) ) ;
#652 = ORIENTED_EDGE ( 'NONE', *, *, #294, .F. ) ;
#653 = VECTOR ( 'NONE', #637, 1000.000000000000000 ) ;
#654 = DIRECTION ( 'NONE',  ( 0.000000000000000000, 0.000000000000000000, 1.000000000000000000 ) ) ;
#655 =( GEOMETRIC_REPRESENTATION_CONTEXT ( 3 ) GLOBAL_UNCERTAINTY_ASSIGNED_CONTEXT ( ( #912 ) ) GLOBAL_UNIT_ASSIGNED_CONTEXT ( ( #688, #299, #907 ) ) REPRESENTATION_CONTEXT ( 'NONE', 'WORKASPACE' ) );
#656 = CARTESIAN_POINT ( 'NONE',  ( -121.0531171858094837, 49.57248558182179465, 43.15374860349198372 ) ) ;
#657 = AXIS2_PLACEMENT_3D ( 'NONE', #97, #166, #183 ) ;
#658 = CARTESIAN_POINT ( 'NONE',  ( -71.51730331720412437, 73.45614166871951056, 3.000000000000000000 ) ) ;
#659 = CARTESIAN_POINT ( 'NONE',  ( -120.0833507514958427, 46.82574314882867839, 45.78185056997247671 ) ) ;
#660 = AXIS2_PLACEMENT_3D ( 'NONE', #1179, #596, #909 ) ;
#661 = DIRECTION ( 'NONE',  ( 0.000000000000000000, 0.000000000000000000, -1.000000000000000000 ) ) ;
#662 = VECTOR ( 'NONE', #441, 1000.000000000000000 ) ;
#663 = CARTESIAN_POINT ( 'NONE',  ( -118.4545279843710830, 46.05452454555432240, 104.0000000000000000 ) ) ;
#664 = AXIS2_PLACEMENT_3D ( 'NONE', #474, #201, #462 ) ;
#665 = EDGE_LOOP ( 'NONE', ( #1077, #326 ) ) ;
#666 = CARTESIAN_POINT ( 'NONE',  ( -120.5445185290795820, 49.75093787486903807, 43.38465836910568640 ) ) ;
#667 = DIRECTION ( 'NONE',  ( 0.000000000000000000, 1.000000000000000000, 0.000000000000000000 ) ) ;
#668 = ORIENTED_EDGE ( 'NONE', *, *, #177, .F. ) ;
#669 = ADVANCED_FACE ( 'NONE', ( #1195 ), #411, .F. ) ;
#670 = CARTESIAN_POINT ( 'NONE',  ( 0.000000000000000000, -72.40000343881547451, 101.7999999999997698 ) ) ;
#671 = DIRECTION ( 'NONE',  ( -0.000000000000000000, 0.7071067811865515695, -0.7071067811865435759 ) ) ;
#672 = ORIENTED_EDGE ( 'NONE', *, *, #23, .T. ) ;
#673 = CARTESIAN_POINT ( 'NONE',  ( -74.86400932125691554, 81.34114284186829025, 0.000000000000000000 ) ) ;
#674 = DIRECTION ( 'NONE',  ( 1.000000000000000000, 0.000000000000000000, 0.000000000000000000 ) ) ;
#675 = DIRECTION ( 'NONE',  ( -1.000000000000000000, 0.000000000000000000, 0.000000000000000000 ) ) ;
#676 = ORIENTED_EDGE ( 'NONE', *, *, #934, .T. ) ;
#677 = LINE ( 'NONE', #747, #599 ) ;
#678 = ADVANCED_FACE ( 'NONE', ( #914 ), #498, .F. ) ;
#679 = CARTESIAN_POINT ( 'NONE',  ( -119.0423713970144632, 44.68917593288082202, 96.82407272273644594 ) ) ;
#680 = CYLINDRICAL_SURFACE ( 'NONE', #664, 1.477000000000006086 ) ;
#681 = LINE ( 'NONE', #883, #121 ) ;
#682 = ORIENTED_EDGE ( 'NONE', *, *, #555, .F. ) ;
#683 = CARTESIAN_POINT ( 'NONE',  ( -117.2097499499529079, 45.25092871898073810, 97.72816657605275736 ) ) ;
#684 = EDGE_CURVE ( 'NONE', #232, #898, #694, .T. ) ;
#685 = DIRECTION ( 'NONE',  ( -0.000000000000000000, 0.7071067811865474617, -0.7071067811865475727 ) ) ;
#686 = CARTESIAN_POINT ( 'NONE',  ( -75.61717728096662938, 80.55762274531630851, 3.000000000000000000 ) ) ;
#687 = ORIENTED_EDGE ( 'NONE', *, *, #452, .F. ) ;
#688 =( LENGTH_UNIT ( ) NAMED_UNIT ( * ) SI_UNIT ( .MILLI., .METRE. ) );
#689 = CONICAL_SURFACE ( 'NONE', #145, 164.9999999999999147, 0.7853981633974511656 ) ;
#690 = LINE ( 'NONE', #603, #1115 ) ;
#691 = LINE ( 'NONE', #989, #423 ) ;
#692 = EDGE_CURVE ( 'NONE', #597, #1089, #217, .T. ) ;
#693 = ORIENTED_EDGE ( 'NONE', *, *, #1181, .T. ) ;
#694 = LINE ( 'NONE', #1202, #279 ) ;
#695 = ORIENTED_EDGE ( 'NONE', *, *, #130, .T. ) ;
#696 = VERTEX_POINT ( 'NONE', #224 ) ;
#697 = DIRECTION ( 'NONE',  ( -1.000000000000000000, 0.000000000000000000, -0.000000000000000000 ) ) ;
#698 = ORIENTED_EDGE ( 'NONE', *, *, #1101, .T. ) ;
#699 = EDGE_CURVE ( 'NONE', #153, #163, #2, .T. ) ;
#700 = AXIS2_PLACEMENT_3D ( 'NONE', #806, #1095, #697 ) ;
#701 = CIRCLE ( 'NONE', #1000, 175.7000000000000171 ) ;
#702 = CARTESIAN_POINT ( 'NONE',  ( -120.3153371425997875, 48.28807912218735510, 43.00000000000000000 ) ) ;
#703 = ORIENTED_EDGE ( 'NONE', *, *, #563, .F. ) ;
#704 = VECTOR ( 'NONE', #772, 1000.000000000000000 ) ;
#705 = EDGE_CURVE ( 'NONE', #422, #947, #325, .T. ) ;
#706 = DIRECTION ( 'NONE',  ( 0.000000000000000000, 1.000000000000000000, 0.000000000000000000 ) ) ;
#707 = B_SPLINE_CURVE_WITH_KNOTS ( 'NONE', 3,
 ( #469, #874, #10, #463, #766, #95, #390, #478, #897, #986, #113, #1191, #659, #6, #192, #965, #304, #869, #384, #1161 ),
 .UNSPECIFIED., .F., .F.,
 ( 4, 2, 2, 2, 2, 2, 2, 2, 2, 4 ),
 ( 0.007400356792046863287, 0.008106138166133862455, 0.008811919540220860755, 0.009517700914307859056, 0.01022348228839485736, 0.01057637297543835737, 0.01092926366248185566, 0.01163504503656885049, 0.01234082641065584532, 0.01304660778474283842 ),
 .UNSPECIFIED. ) ;
#708 = EDGE_LOOP ( 'NONE', ( #501, #1213 ) ) ;
#709 = CARTESIAN_POINT ( 'NONE',  ( -177.5000000000000000, -72.40000343881547451, 102.0000000000000142 ) ) ;
#710 = ORIENTED_EDGE ( 'NONE', *, *, #1043, .T. ) ;
#711 = CIRCLE ( 'NONE', #886, 175.0000000000000284 ) ;
#712 = CONICAL_SURFACE ( 'NONE', #757, 175.7000000000000171, 0.7853981633974482790 ) ;
#713 = ADVANCED_FACE ( 'NONE', ( #614 ), #649, .F. ) ;
#714 = ORIENTED_EDGE ( 'NONE', *, *, #351, .F. ) ;
#715 = CARTESIAN_POINT ( 'NONE',  ( -117.0281005066810565, 45.32892584348164888, -7.000000000000000000 ) ) ;
#716 = MECHANICAL_DESIGN_GEOMETRIC_PRESENTATION_REPRESENTATION (  '', ( #524 ), #61 ) ;
#717 = EDGE_LOOP ( 'NONE', ( #580, #505, #428, #298 ) ) ;
#718 = CARTESIAN_POINT ( 'NONE',  ( 0.000000000000000000, -72.40000343881547451, 53.00000000000000711 ) ) ;
#719 = ORIENTED_EDGE ( 'NONE', *, *, #903, .F. ) ;
#720 = CIRCLE ( 'NONE', #550, 174.2000000000001876 ) ;
#721 = ADVANCED_FACE ( 'NONE', ( #360 ), #234, .T. ) ;
#722 = VERTEX_POINT ( 'NONE', #264 ) ;
#723 = CARTESIAN_POINT ( 'NONE',  ( -119.6985850625492702, 46.85917897964759504, 94.83109613698907481 ) ) ;
#724 = ORIENTED_EDGE ( 'NONE', *, *, #699, .F. ) ;
#725 = DIRECTION ( 'NONE',  ( -0.8660342776337551784, -0.4999846297271345330, -0.000000000000000000 ) ) ;
#726 = LINE ( 'NONE', #853, #878 ) ;
#727 = ORIENTED_EDGE ( 'NONE', *, *, #803, .T. ) ;
#728 = CARTESIAN_POINT ( 'NONE',  ( -118.0272487010398663, 47.47998725865706149, 95.56910998328817186 ) ) ;
#729 = EDGE_CURVE ( 'NONE', #1094, #1203, #36, .T. ) ;
#730 = ORIENTED_EDGE ( 'NONE', *, *, #692, .T. ) ;
#731 = DIRECTION ( 'NONE',  ( 1.000000000000000000, 0.000000000000000000, -0.000000000000000000 ) ) ;
#732 = LINE ( 'NONE', #530, #218 ) ;
#733 = ORIENTED_EDGE ( 'NONE', *, *, #705, .F. ) ;
#734 = PRODUCT ( 'rightbottom', 'rightbottom', '', ( #21 ) ) ;
#735 = CARTESIAN_POINT ( 'NONE',  ( 0.000000000000000000, 105.5999965611845397, 102.0000000000000000 ) ) ;
#736 = ORIENTED_EDGE ( 'NONE', *, *, #285, .T. ) ;
#737 = DIRECTION ( 'NONE',  ( -0.000000000000000000, -0.000000000000000000, 1.000000000000000000 ) ) ;
#738 = ORIENTED_EDGE ( 'NONE', *, *, #1172, .T. ) ;
#739 = DIRECTION ( 'NONE',  ( -1.000000000000000000, 0.000000000000000000, 0.000000000000000000 ) ) ;
#740 = CARTESIAN_POINT ( 'NONE',  ( -72.66400932125694112, 81.34114284186829025, 3.000000000000000000 ) ) ;
#741 = EDGE_CURVE ( 'NONE', #1111, #597, #520, .T. ) ;
#742 = ORIENTED_EDGE ( 'NONE', *, *, #157, .T. ) ;
#743 = FACE_BOUND ( 'NONE', #315, .T. ) ;
#744 = CARTESIAN_POINT ( 'NONE',  ( 0.000000000000000000, -72.40000343881547451, 3.000000000000000000 ) ) ;
#745 = CARTESIAN_POINT ( 'NONE',  ( 0.000000000000000000, -72.40000343881547451, 102.0000000000000000 ) ) ;
#746 = VERTEX_POINT ( 'NONE', #353 ) ;
#747 = CARTESIAN_POINT ( 'NONE',  ( -175.0000000000000284, -72.40000343881547451, 102.0000000000000000 ) ) ;
#748 = EDGE_CURVE ( 'NONE', #591, #422, #1129, .T. ) ;
#749 = CARTESIAN_POINT ( 'NONE',  ( 0.000000000000000000, -72.40000343881547451, 102.0000000000000000 ) ) ;
#750 = ORIENTED_EDGE ( 'NONE', *, *, #188, .T. ) ;
#751 = CARTESIAN_POINT ( 'NONE',  ( -119.9315279843715274, 46.05452454555369002, 95.23236786184057223 ) ) ;
#752 = CARTESIAN_POINT ( 'NONE',  ( 0.000000000000000000, -72.40000343881547451, 53.79999999999999716 ) ) ;
#753 = CARTESIAN_POINT ( 'NONE',  ( -118.4545279843710830, 46.05452454555432240, 98.99999999999998579 ) ) ;
#754 = EDGE_LOOP ( 'NONE', ( #991, #125, #137, #1127 ) ) ;
#755 = CARTESIAN_POINT ( 'NONE',  ( -119.9315279843715274, 46.05452454555369002, 95.23236786184057223 ) ) ;
#756 = FACE_OUTER_BOUND ( 'NONE', #418, .T. ) ;
#757 = AXIS2_PLACEMENT_3D ( 'NONE', #516, #1131, #334 ) ;
#758 = EDGE_CURVE ( 'NONE', #722, #232, #424, .T. ) ;
#759 = DIRECTION ( 'NONE',  ( 1.000000000000000000, 0.000000000000000000, 0.000000000000000000 ) ) ;
#760 = ORIENTED_EDGE ( 'NONE', *, *, #405, .F. ) ;
#761 = LINE ( 'NONE', #1148, #833 ) ;
#762 = AXIS2_PLACEMENT_3D ( 'NONE', #745, #238, #1146 ) ;
#763 = CARTESIAN_POINT ( 'NONE',  ( -90.36827850878090373, 63.09261766642882918, 3.000000000000000000 ) ) ;
#764 = ADVANCED_FACE ( 'NONE', ( #743, #152, #79, #64, #1137 ), #251, .T. ) ;
#765 = CARTESIAN_POINT ( 'NONE',  ( 0.000000000000000000, 101.7999965611847131, 3.000000000000000000 ) ) ;
#766 = CARTESIAN_POINT ( 'NONE',  ( -121.5414896900088877, 47.44817636459246302, 44.30752874880543146 ) ) ;
#767 = ORIENTED_EDGE ( 'NONE', *, *, #1172, .F. ) ;
#768 = VECTOR ( 'NONE', #997, 1000.000000000000000 ) ;
#769 = CARTESIAN_POINT ( 'NONE',  ( 0.000000000000000000, -72.40000343881547451, 3.000000000000000000 ) ) ;
#770 = AXIS2_PLACEMENT_3D ( 'NONE', #193, #379, #268 ) ;
#771 = DIRECTION ( 'NONE',  ( 0.8660342776337551784, 0.4999846297271345330, 0.000000000000000000 ) ) ;
#772 = DIRECTION ( 'NONE',  ( -0.000000000000000000, -0.000000000000000000, 1.000000000000000000 ) ) ;
#773 = DIRECTION ( 'NONE',  ( -0.000000000000000000, 0.7071067811865495711, -0.7071067811865454633 ) ) ;
#774 = VERTEX_POINT ( 'NONE', #1051 ) ;
#775 = CARTESIAN_POINT ( 'NONE',  ( -90.36827850878090373, 63.09261766642882918, 3.000000000000000000 ) ) ;
#776 = CARTESIAN_POINT ( 'NONE',  ( -119.8632156167976888, 45.60213316634580849, 95.59865212537397383 ) ) ;
#777 = ORIENTED_EDGE ( 'NONE', *, *, #114, .T. ) ;
#778 = FACE_OUTER_BOUND ( 'NONE', #1234, .T. ) ;
#779 = CIRCLE ( 'NONE', #1212, 165.0000000000000000 ) ;
#780 = CARTESIAN_POINT ( 'NONE',  ( 0.000000000000000000, -72.40000343881547451, 0.000000000000000000 ) ) ;
#781 = SURFACE_STYLE_FILL_AREA ( #13 ) ;
#782 = ADVANCED_FACE ( 'NONE', ( #541 ), #1121, .F. ) ;
#783 = LINE ( 'NONE', #41, #337 ) ;
#784 = CIRCLE ( 'NONE', #953, 1.099999999999989875 ) ;
#785 = LINE ( 'NONE', #551, #512 ) ;
#786 = AXIS2_PLACEMENT_3D ( 'NONE', #262, #197, #644 ) ;
#787 = CARTESIAN_POINT ( 'NONE',  ( -118.5051005066810603, 45.32892584348164888, -7.000000000000000000 ) ) ;
#788 = CARTESIAN_POINT ( 'NONE',  ( -175.7000000000000171, -72.40000343881547451, 104.0000000000000000 ) ) ;
#789 = ORIENTED_EDGE ( 'NONE', *, *, #571, .F. ) ;
#790 = SHAPE_DEFINITION_REPRESENTATION ( #242, #1093 ) ;
#791 = CARTESIAN_POINT ( 'NONE',  ( -118.2231359373662940, 44.59207019210730039, 97.47547550139975669 ) ) ;
#792 = ADVANCED_FACE ( 'NONE', ( #339 ), #449, .F. ) ;
#793 = APPLICATION_CONTEXT ( 'automotive_design' ) ;
#794 = DIRECTION ( 'NONE',  ( 0.000000000000000000, -0.7071067811865474617, 0.7071067811865475727 ) ) ;
#795 = CARTESIAN_POINT ( 'NONE',  ( 0.000000000000000000, -72.40000343881547451, 102.0000000000000000 ) ) ;
#796 = VERTEX_POINT ( 'NONE', #388 ) ;
#797 = AXIS2_PLACEMENT_3D ( 'NONE', #963, #395, #302 ) ;
#798 = AXIS2_PLACEMENT_3D ( 'NONE', #308, #205, #582 ) ;
#799 = VERTEX_POINT ( 'NONE', #185 ) ;
#800 = CARTESIAN_POINT ( 'NONE',  ( -119.9821005066810642, 45.32892584348164888, -7.000000000000000000 ) ) ;
#801 = ORIENTED_EDGE ( 'NONE', *, *, #500, .T. ) ;
#802 = DIRECTION ( 'NONE',  ( 1.000000000000000000, 0.000000000000000000, 0.000000000000000000 ) ) ;
#803 = EDGE_CURVE ( 'NONE', #330, #102, #885, .T. ) ;
#804 = EDGE_LOOP ( 'NONE', ( #416, #906, #310, #135 ) ) ;
#805 = VERTEX_POINT ( 'NONE', #673 ) ;
#806 = CARTESIAN_POINT ( 'NONE',  ( 0.000000000000000000, -72.40000343881547451, 102.0000000000000000 ) ) ;
#807 = ORIENTED_EDGE ( 'NONE', *, *, #729, .F. ) ;
#808 = CARTESIAN_POINT ( 'NONE',  ( -117.3519108031271116, 45.06484077834272739, 97.75950153059406489 ) ) ;
#809 = ORIENTED_EDGE ( 'NONE', *, *, #329, .F. ) ;
#810 = LINE ( 'NONE', #502, #124 ) ;
#811 = ORIENTED_EDGE ( 'NONE', *, *, #1194, .T. ) ;
#812 = LINE ( 'NONE', #1224, #1063 ) ;
#813 = ORIENTED_EDGE ( 'NONE', *, *, #1168, .T. ) ;
#814 = CIRCLE ( 'NONE', #587, 1.477000000000006086 ) ;
#815 = EDGE_CURVE ( 'NONE', #540, #1235, #957, .T. ) ;
#816 = EDGE_LOOP ( 'NONE', ( #1236, #807, #109, #447 ) ) ;
#817 = DIRECTION ( 'NONE',  ( 0.000000000000000000, 0.000000000000000000, 1.000000000000000000 ) ) ;
#818 = ORIENTED_EDGE ( 'NONE', *, *, #180, .F. ) ;
#819 = FACE_OUTER_BOUND ( 'NONE', #1143, .T. ) ;
#820 = DIRECTION ( 'NONE',  ( -0.7071067811865495711, 0.000000000000000000, -0.7071067811865454633 ) ) ;
#821 = MECHANICAL_DESIGN_GEOMETRIC_PRESENTATION_REPRESENTATION (  '', ( #631 ), #655 ) ;
#822 = ORIENTED_EDGE ( 'NONE', *, *, #150, .T. ) ;
#823 = AXIS2_PLACEMENT_3D ( 'NONE', #1119, #402, #226 ) ;
#824 = ADVANCED_FACE ( 'NONE', ( #86, #778 ), #689, .F. ) ;
#825 = AXIS2_PLACEMENT_3D ( 'NONE', #212, #1205, #319 ) ;
#826 = DIRECTION ( 'NONE',  ( -0.000000000000000000, -0.000000000000000000, -1.000000000000000000 ) ) ;
#827 = AXIS2_PLACEMENT_3D ( 'NONE', #911, #504, #143 ) ;
#828 = APPLICATION_CONTEXT ( 'automotive_design' ) ;
#829 = ORIENTED_EDGE ( 'NONE', *, *, #256, .T. ) ;
#830 = FACE_OUTER_BOUND ( 'NONE', #344, .T. ) ;
#831 = CARTESIAN_POINT ( 'NONE',  ( -91.46827850878091226, 63.09261766642882918, 3.000000000000000000 ) ) ;
#832 = EDGE_LOOP ( 'NONE', ( #910, #633, #789, #687 ) ) ;
#833 = VECTOR ( 'NONE', #856, 1000.000000000000000 ) ;
#834 = DIRECTION ( 'NONE',  ( 1.000000000000000000, 0.000000000000000000, 0.000000000000000000 ) ) ;
#835 = ORIENTED_EDGE ( 'NONE', *, *, #873, .F. ) ;
#836 = CARTESIAN_POINT ( 'NONE',  ( -119.8808116446326153, 46.45192065029969086, 94.98891809117094454 ) ) ;
#837 = ADVANCED_FACE ( 'NONE', ( #1263 ), #1177, .T. ) ;
#838 = ORIENTED_EDGE ( 'NONE', *, *, #421, .F. ) ;
#839 = CARTESIAN_POINT ( 'NONE',  ( -116.9775279843710791, 46.05452454555432240, 104.0000000000000000 ) ) ;
#840 = CARTESIAN_POINT ( 'NONE',  ( -162.0000000000000000, -72.40000343881547451, 104.0000000000000000 ) ) ;
#841 = ORIENTED_EDGE ( 'NONE', *, *, #592, .T. ) ;
#842 = DIRECTION ( 'NONE',  ( -1.000000000000000000, 0.000000000000000000, 0.000000000000000000 ) ) ;
#843 = CARTESIAN_POINT ( 'NONE',  ( -116.9775279843676259, 46.05452454555888409, 97.32112069894722595 ) ) ;
#844 = CYLINDRICAL_SURFACE ( 'NONE', #118, 175.0000000000000284 ) ;
#845 = DIRECTION ( 'NONE',  ( -0.8660342776337551784, -0.4999846297271345330, 0.000000000000000000 ) ) ;
#846 = EDGE_CURVE ( 'NONE', #898, #1138, #1068, .T. ) ;
#847 = ORIENTED_EDGE ( 'NONE', *, *, #452, .T. ) ;
#848 = DIRECTION ( 'NONE',  ( -0.000000000000000000, -0.000000000000000000, -1.000000000000000000 ) ) ;
#849 = LINE ( 'NONE', #194, #223 ) ;
#850 = ORIENTED_EDGE ( 'NONE', *, *, #705, .T. ) ;
#851 = CARTESIAN_POINT ( 'NONE',  ( -73.76400932125693544, 81.34114284186829025, 3.000000000000000000 ) ) ;
#852 = CARTESIAN_POINT ( 'NONE',  ( -92.68444238722507578, 70.70423651686009237, 3.000000000000000000 ) ) ;
#853 = CARTESIAN_POINT ( 'NONE',  ( 0.000000000000000000, -72.40000343881547451, 279.5000000000000000 ) ) ;
#854 = ORIENTED_EDGE ( 'NONE', *, *, #1052, .T. ) ;
#855 = EDGE_CURVE ( 'NONE', #356, #410, #289, .T. ) ;
#856 = DIRECTION ( 'NONE',  ( -0.7071067811865474617, 0.000000000000000000, -0.7071067811865475727 ) ) ;
#857 = DIRECTION ( 'NONE',  ( 0.000000000000000000, 0.000000000000000000, -1.000000000000000000 ) ) ;
#858 = CARTESIAN_POINT ( 'NONE',  ( 0.000000000000000000, -72.40000343881547451, 279.6999999999999886 ) ) ;
#859 = VECTOR ( 'NONE', #685, 1000.000000000000000 ) ;
#860 = LINE ( 'NONE', #368, #704 ) ;
#861 = LINE ( 'NONE', #840, #429 ) ;
#862 = EDGE_LOOP ( 'NONE', ( #602, #750 ) ) ;
#863 =( LENGTH_UNIT ( ) NAMED_UNIT ( * ) SI_UNIT ( .MILLI., .METRE. ) );
#864 = CARTESIAN_POINT ( 'NONE',  ( -119.4641147437853874, 44.96385007286522750, 96.33075314813606838 ) ) ;
#865 = EDGE_CURVE ( 'NONE', #696, #589, #1010, .T. ) ;
#866 = ORIENTED_EDGE ( 'NONE', *, *, #684, .T. ) ;
#867 = CARTESIAN_POINT ( 'NONE',  ( -88.58456842346257076, 63.60275544026329442, 3.000000000000000000 ) ) ;
#868 = DIRECTION ( 'NONE',  ( 0.000000000000000000, 0.000000000000000000, 1.000000000000000000 ) ) ;
#869 = CARTESIAN_POINT ( 'NONE',  ( -118.8753450416823370, 47.89082006417307724, 45.88114663348212474 ) ) ;
#870 = ORIENTED_EDGE ( 'NONE', *, *, #467, .T. ) ;
#871 =( NAMED_UNIT ( * ) SI_UNIT ( $, .STERADIAN. ) SOLID_ANGLE_UNIT ( ) );
#872 = CARTESIAN_POINT ( 'NONE',  ( -119.8878556847638919, 45.68673460897693417, 95.52173931464677992 ) ) ;
#873 = EDGE_CURVE ( 'NONE', #311, #1031, #785, .T. ) ;
#874 = CARTESIAN_POINT ( 'NONE',  ( -121.7923371425998056, 48.09465050731490265, 43.67482339551668957 ) ) ;
#875 = ORIENTED_EDGE ( 'NONE', *, *, #1194, .F. ) ;
#876 = AXIS2_PLACEMENT_3D ( 'NONE', #513, #607, #136 ) ;
#877 = CARTESIAN_POINT ( 'NONE',  ( 0.000000000000000000, 101.7999965611845141, 53.00000000000000711 ) ) ;
#878 = VECTOR ( 'NONE', #931, 1000.000000000000000 ) ;
#879 = CARTESIAN_POINT ( 'NONE',  ( 0.000000000000000000, 102.5999965611845397, 102.0000000000000000 ) ) ;
#880 = AXIS2_PLACEMENT_3D ( 'NONE', #780, #888, #1257 ) ;
#881 = ORIENTED_EDGE ( 'NONE', *, *, #748, .F. ) ;
#882 = CARTESIAN_POINT ( 'NONE',  ( -121.3335730240079187, 49.36429483284061348, 43.10361578601907695 ) ) ;
#883 = CARTESIAN_POINT ( 'NONE',  ( 0.000000000000000000, -72.40000343881547451, 0.000000000000000000 ) ) ;
#884 = CARTESIAN_POINT ( 'NONE',  ( -118.3240015150907851, 44.58014661302384951, 97.41213976484202419 ) ) ;
#885 = LINE ( 'NONE', #867, #968 ) ;
#886 = AXIS2_PLACEMENT_3D ( 'NONE', #913, #933, #834 ) ;
#887 = VECTOR ( 'NONE', #1145, 1000.000000000000000 ) ;
#888 = DIRECTION ( 'NONE',  ( 0.000000000000000000, 1.000000000000000000, 0.000000000000000000 ) ) ;
#889 = DIRECTION ( 'NONE',  ( 0.000000000000000000, 0.000000000000000000, -1.000000000000000000 ) ) ;
#890 = EDGE_LOOP ( 'NONE', ( #359, #78, #822, #1107 ) ) ;
#891 = EDGE_CURVE ( 'NONE', #805, #921, #1022, .T. ) ;
#892 = APPLICATION_PROTOCOL_DEFINITION ( 'draft international standard', 'automotive_design', 1998, #828 ) ;
#893 = DIRECTION ( 'NONE',  ( 0.000000000000000000, 0.000000000000000000, 1.000000000000000000 ) ) ;
#894 = CARTESIAN_POINT ( 'NONE',  ( 0.000000000000000000, -72.40000343881547451, 279.5000000000000000 ) ) ;
#895 = CIRCLE ( 'NONE', #786, 1.477000000000006086 ) ;
#896 = ORIENTED_EDGE ( 'NONE', *, *, #421, .T. ) ;
#897 = CARTESIAN_POINT ( 'NONE',  ( -120.7408700846928156, 46.86195409853733906, 45.28918367867647277 ) ) ;
#898 = VERTEX_POINT ( 'NONE', #25 ) ;
#899 = VECTOR ( 'NONE', #68, 1000.000000000000000 ) ;
#900 = ORIENTED_EDGE ( 'NONE', *, *, #401, .T. ) ;
#901 = DIRECTION ( 'NONE',  ( 0.000000000000000000, 0.000000000000000000, 1.000000000000000000 ) ) ;
#902 = ORIENTED_EDGE ( 'NONE', *, *, #473, .F. ) ;
#903 = EDGE_CURVE ( 'NONE', #1163, #1008, #119, .T. ) ;
#904 = ORIENTED_EDGE ( 'NONE', *, *, #865, .T. ) ;
#905 = DIRECTION ( 'NONE',  ( -0.000000000000000000, -0.000000000000000000, -1.000000000000000000 ) ) ;
#906 = ORIENTED_EDGE ( 'NONE', *, *, #758, .T. ) ;
#907 =( NAMED_UNIT ( * ) SI_UNIT ( $, .STERADIAN. ) SOLID_ANGLE_UNIT ( ) );
#908 = EDGE_CURVE ( 'NONE', #1136, #1109, #691, .T. ) ;
#909 = DIRECTION ( 'NONE',  ( -1.000000000000000000, 0.000000000000000000, 0.000000000000000000 ) ) ;
#910 = ORIENTED_EDGE ( 'NONE', *, *, #53, .T. ) ;
#911 = CARTESIAN_POINT ( 'NONE',  ( 0.000000000000000000, -72.40000343881547451, 102.0000000000000000 ) ) ;
#912 = UNCERTAINTY_MEASURE_WITH_UNIT (LENGTH_MEASURE( 1.000000000000000082E-05 ), #688, 'distance_accuracy_value', 'NONE');
#913 = CARTESIAN_POINT ( 'NONE',  ( 0.000000000000000000, -72.40000343881547451, 3.799999999999720046 ) ) ;
#914 = FACE_OUTER_BOUND ( 'NONE', #1206, .T. ) ;
#915 = ORIENTED_EDGE ( 'NONE', *, *, #351, .T. ) ;
#916 = DIRECTION ( 'NONE',  ( 1.000000000000000000, 0.000000000000000000, 0.000000000000000000 ) ) ;
#917 = ADVANCED_FACE ( 'NONE', ( #819 ), #361, .T. ) ;
#918 = AXIS2_PLACEMENT_3D ( 'NONE', #851, #1248, #1151 ) ;
#919 = ORIENTED_EDGE ( 'NONE', *, *, #1052, .F. ) ;
#920 = CARTESIAN_POINT ( 'NONE',  ( -116.9775279843714628, 46.24594783400534936, 97.18491750384048089 ) ) ;
#921 = VERTEX_POINT ( 'NONE', #950 ) ;
#922 = FACE_OUTER_BOUND ( 'NONE', #228, .T. ) ;
#923 = CARTESIAN_POINT ( 'NONE',  ( 0.000000000000000000, 89.59999656118452549, 104.0000000000000000 ) ) ;
#924 = ADVANCED_FACE ( 'NONE', ( #830 ), #712, .T. ) ;
#925 = CIRCLE ( 'NONE', #1092, 1.477000000000006086 ) ;
#926 = ORIENTED_EDGE ( 'NONE', *, *, #83, .F. ) ;
#927 = CARTESIAN_POINT ( 'NONE',  ( -119.8483401507606629, 46.55570240765588608, 94.93889205058869152 ) ) ;
#928 = AXIS2_PLACEMENT_3D ( 'NONE', #561, #889, #202 ) ;
#929 = ORIENTED_EDGE ( 'NONE', *, *, #130, .F. ) ;
#930 = DIRECTION ( 'NONE',  ( 0.000000000000000000, 1.000000000000000000, 0.000000000000000000 ) ) ;
#931 = DIRECTION ( 'NONE',  ( 0.7071067811865474617, -0.000000000000000000, 0.7071067811865475727 ) ) ;
#932 = ORIENTED_EDGE ( 'NONE', *, *, #467, .F. ) ;
#933 = DIRECTION ( 'NONE',  ( -0.000000000000000000, -0.000000000000000000, -1.000000000000000000 ) ) ;
#934 = EDGE_CURVE ( 'NONE', #439, #341, #369, .T. ) ;
#935 = AXIS2_PLACEMENT_3D ( 'NONE', #702, #1117, #1106 ) ;
#936 = CARTESIAN_POINT ( 'NONE',  ( -118.5821848535706522, 47.54065797648532765, 95.13623535143962329 ) ) ;
#937 = VECTOR ( 'NONE', #1009, 1000.000000000000000 ) ;
#938 = ORIENTED_EDGE ( 'NONE', *, *, #1218, .T. ) ;
#939 = FACE_OUTER_BOUND ( 'NONE', #1120, .T. ) ;
#940 = LINE ( 'NONE', #740, #594 ) ;
#941 = ORIENTED_EDGE ( 'NONE', *, *, #340, .T. ) ;
#942 = CYLINDRICAL_SURFACE ( 'NONE', #1007, 162.0000000000000000 ) ;
#943 = EDGE_CURVE ( 'NONE', #163, #153, #925, .T. ) ;
#944 = DIRECTION ( 'NONE',  ( 0.000000000000000000, 0.000000000000000000, 1.000000000000000000 ) ) ;
#945 = FACE_BOUND ( 'NONE', #494, .T. ) ;
#946 = CARTESIAN_POINT ( 'NONE',  ( 0.000000000000000000, -72.40000343881547451, 263.7999999999978513 ) ) ;
#947 = VERTEX_POINT ( 'NONE', #142 ) ;
#948 = CARTESIAN_POINT ( 'NONE',  ( -118.6101999306578989, 44.58289224082983537, 97.20655882007575599 ) ) ;
#949 = CARTESIAN_POINT ( 'NONE',  ( -117.4422343003427045, 47.14290963803771461, 96.21961230999254155 ) ) ;
#950 = CARTESIAN_POINT ( 'NONE',  ( -72.66400932125694112, 81.34114284186829025, 0.000000000000000000 ) ) ;
#951 = CARTESIAN_POINT ( 'NONE',  ( 0.000000000000000000, -72.40000343881547451, 50.00000000000000000 ) ) ;
#952 = ORIENTED_EDGE ( 'NONE', *, *, #943, .T. ) ;
#953 = AXIS2_PLACEMENT_3D ( 'NONE', #394, #1207, #327 ) ;
#954 = CYLINDRICAL_SURFACE ( 'NONE', #1104, 1.100000000000003642 ) ;
#955 = DIRECTION ( 'NONE',  ( 0.000000000000000000, 0.000000000000000000, 1.000000000000000000 ) ) ;
#956 = EDGE_LOOP ( 'NONE', ( #173, #698, #952, #608 ) ) ;
#957 = LINE ( 'NONE', #1081, #307 ) ;
#958 = LINE ( 'NONE', #658, #1204 ) ;
#959 = CARTESIAN_POINT ( 'NONE',  ( -165.0000000000000000, -72.40000343881547451, 53.00000000000000711 ) ) ;
#960 = EDGE_CURVE ( 'NONE', #1094, #1016, #342, .T. ) ;
#961 = CARTESIAN_POINT ( 'NONE',  ( -92.68444238722507578, 70.70423651686009237, 0.000000000000000000 ) ) ;
#962 = DIRECTION ( 'NONE',  ( 1.000000000000000000, 0.000000000000000000, 0.000000000000000000 ) ) ;
#963 = CARTESIAN_POINT ( 'NONE',  ( -92.68444238722507578, 70.70423651686009237, 3.000000000000000000 ) ) ;
#964 = DIRECTION ( 'NONE',  ( -0.000000000000000000, -0.000000000000000000, 1.000000000000000000 ) ) ;
#965 = CARTESIAN_POINT ( 'NONE',  ( -119.2027685399269217, 47.28820767173163375, 46.07838356632043286 ) ) ;
#966 = ORIENTED_EDGE ( 'NONE', *, *, #1087, .F. ) ;
#967 = DIRECTION ( 'NONE',  ( -1.000000000000000000, 0.000000000000000000, 0.000000000000000000 ) ) ;
#968 = VECTOR ( 'NONE', #771, 1000.000000000000114 ) ;
#969 = ADVANCED_FACE ( 'NONE', ( #922 ), #990, .F. ) ;
#970 = CARTESIAN_POINT ( 'NONE',  ( -119.9315279843715274, 46.05452454555369002, 95.23236786184057223 ) ) ;
#971 = CARTESIAN_POINT ( 'NONE',  ( -121.5594524010415824, 49.09261244958957349, 43.13626661040196808 ) ) ;
#972 = DIRECTION ( 'NONE',  ( 1.000000000000000000, -0.000000000000000000, 0.000000000000000000 ) ) ;
#973 = ORIENTED_EDGE ( 'NONE', *, *, #934, .F. ) ;
#974 = CARTESIAN_POINT ( 'NONE',  ( -92.68444238722507578, 70.70423651686009237, 3.000000000000000000 ) ) ;
#975 = DIRECTION ( 'NONE',  ( 0.000000000000000000, 0.000000000000000000, 1.000000000000000000 ) ) ;
#976 = EDGE_CURVE ( 'NONE', #12, #1239, #636, .T. ) ;
#977 = CARTESIAN_POINT ( 'NONE',  ( -119.8877471309834561, 49.71348376976937544, 43.87208193032713410 ) ) ;
#978 = LINE ( 'NONE', #1090, #373 ) ;
#979 = ORIENTED_EDGE ( 'NONE', *, *, #1158, .F. ) ;
#980 = PRESENTATION_STYLE_ASSIGNMENT (( #1188 ) ) ;
#981 = CARTESIAN_POINT ( 'NONE',  ( -117.7168617435663833, 44.77000727796890800, 97.70948320700624379 ) ) ;
#982 = ORIENTED_EDGE ( 'NONE', *, *, #219, .T. ) ;
#983 = CARTESIAN_POINT ( 'NONE',  ( -121.7923371425998056, 48.38470991260503240, 43.47065657805192984 ) ) ;
#984 = EDGE_CURVE ( 'NONE', #1008, #1138, #245, .T. ) ;
#985 = CARTESIAN_POINT ( 'NONE',  ( 0.000000000000000000, -72.40000343881547451, 104.0000000000000000 ) ) ;
#986 = CARTESIAN_POINT ( 'NONE',  ( -120.4706175928954508, 46.81642615741345992, 45.51335147898446110 ) ) ;
#987 = ORIENTED_EDGE ( 'NONE', *, *, #960, .F. ) ;
#988 = FACE_OUTER_BOUND ( 'NONE', #717, .T. ) ;
#989 = CARTESIAN_POINT ( 'NONE',  ( 0.000000000000000000, -72.40000343881547451, 3.000000000000000000 ) ) ;
#990 = CONICAL_SURFACE ( 'NONE', #16, 175.0000000000000284, 0.7853981633974657095 ) ;
#991 = ORIENTED_EDGE ( 'NONE', *, *, #1158, .T. ) ;
#992 = SURFACE_STYLE_USAGE ( .BOTH. , #207 ) ;
#993 = ADVANCED_FACE ( 'NONE', ( #1249, #67 ), #237, .T. ) ;
#994 = VERTEX_POINT ( 'NONE', #852 ) ;
#995 = AXIS2_PLACEMENT_3D ( 'NONE', #951, #544, #1040 ) ;
#996 =( GEOMETRIC_REPRESENTATION_CONTEXT ( 3 ) GLOBAL_UNCERTAINTY_ASSIGNED_CONTEXT ( ( #511 ) ) GLOBAL_UNIT_ASSIGNED_CONTEXT ( ( #863, #1252, #871 ) ) REPRESENTATION_CONTEXT ( 'NONE', 'WORKASPACE' ) );
#997 = DIRECTION ( 'NONE',  ( 0.000000000000000000, -1.000000000000000000, 0.000000000000000000 ) ) ;
#998 = EDGE_LOOP ( 'NONE', ( #719, #46, #1118, #682 ) ) ;
#999 = ADVANCED_FACE ( 'NONE', ( #432, #50, #945, #426, #543 ), #265, .F. ) ;
#1000 = AXIS2_PLACEMENT_3D ( 'NONE', #1241, #554, #246 ) ;
#1001 = VECTOR ( 'NONE', #76, 1000.000000000000114 ) ;
#1002 = CARTESIAN_POINT ( 'NONE',  ( -121.7923371425997914, 48.28807912218735510, 43.53867299327191631 ) ) ;
#1003 = ORIENTED_EDGE ( 'NONE', *, *, #585, .T. ) ;
#1004 = PRODUCT_RELATED_PRODUCT_CATEGORY ( 'part', '', ( #734 ) ) ;
#1005 = ORIENTED_EDGE ( 'NONE', *, *, #1070, .T. ) ;
#1006 = CARTESIAN_POINT ( 'NONE',  ( 0.000000000000000000, 105.5999965611845397, 102.0000000000000000 ) ) ;
#1007 = AXIS2_PLACEMENT_3D ( 'NONE', #70, #443, #842 ) ;
#1008 = VERTEX_POINT ( 'NONE', #1026 ) ;
#1009 = DIRECTION ( 'NONE',  ( -0.000000000000000000, -0.000000000000000000, -1.000000000000000000 ) ) ;
#1010 = B_SPLINE_CURVE_WITH_KNOTS ( 'NONE', 3,
 ( #271, #200, #195, #559, #1088, #1167, #93, #282, #977, #572, #106, #367, #666, #472, #190, #656, #1256, #882, #566, #971, #577, #99, #296, #455, #983, #111 ),
 .UNSPECIFIED., .F., .F.,
 ( 4, 2, 2, 2, 2, 2, 2, 2, 2, 2, 2, 2, 4 ),
 ( 0.001758981583105018870, 0.002464153484222744543, 0.003169325385340470216, 0.003874497286458195456, 0.004579669187575921563, 0.004932255138134788303, 0.005284841088693656777, 0.005637427039252524384, 0.005990012989811391991, 0.006342598940370259598, 0.006695184890929128073, 0.007047770841487995680, 0.007400356792046863287 ),
 .UNSPECIFIED. ) ;
#1011 = ORIENTED_EDGE ( 'NONE', *, *, #1072, .F. ) ;
#1012 = DIRECTION ( 'NONE',  ( 1.000000000000000000, 0.000000000000000000, 0.000000000000000000 ) ) ;
#1013 = ORIENTED_EDGE ( 'NONE', *, *, #98, .F. ) ;
#1014 = DIRECTION ( 'NONE',  ( 0.000000000000000000, 0.000000000000000000, -1.000000000000000000 ) ) ;
#1015 = EDGE_LOOP ( 'NONE', ( #391, #870 ) ) ;
#1016 = VERTEX_POINT ( 'NONE', #839 ) ;
#1017 = CARTESIAN_POINT ( 'NONE',  ( -90.36827850878090373, 63.09261766642882918, 0.000000000000000000 ) ) ;
#1018 = EDGE_CURVE ( 'NONE', #1239, #540, #148, .T. ) ;
#1019 = ORIENTED_EDGE ( 'NONE', *, *, #465, .F. ) ;
#1020 = DIRECTION ( 'NONE',  ( -0.4999846297271346995, 0.8660342776337550674, -0.000000000000000000 ) ) ;
#1021 = ORIENTED_EDGE ( 'NONE', *, *, #976, .F. ) ;
#1022 = CIRCLE ( 'NONE', #798, 1.099999999999989875 ) ;
#1023 = CARTESIAN_POINT ( 'NONE',  ( -119.9222540094340701, 46.24943236722521789, 95.10196166296498177 ) ) ;
#1024 = ORIENTED_EDGE ( 'NONE', *, *, #525, .T. ) ;
#1025 = ADVANCED_FACE ( 'NONE', ( #939 ), #844, .F. ) ;
#1026 = CARTESIAN_POINT ( 'NONE',  ( 0.000000000000000000, 104.0999965611845113, 103.0000000000000568 ) ) ;
#1027 = CARTESIAN_POINT ( 'NONE',  ( 0.000000000000000000, 92.59999656118453970, 50.00000000000000000 ) ) ;
#1028 = VERTEX_POINT ( 'NONE', #445 ) ;
#1029 = DIRECTION ( 'NONE',  ( 0.000000000000000000, 0.000000000000000000, -1.000000000000000000 ) ) ;
#1030 = CARTESIAN_POINT ( 'NONE',  ( -175.0000000000000284, -72.40000343881547451, 102.0000000000000000 ) ) ;
#1031 = VERTEX_POINT ( 'NONE', #1244 ) ;
#1032 = CARTESIAN_POINT ( 'NONE',  ( -92.68444238722507578, 70.70423651686009237, 0.000000000000000000 ) ) ;
#1033 = CARTESIAN_POINT ( 'NONE',  ( -88.58456842346257076, 63.60275544026329442, 3.000000000000000000 ) ) ;
#1034 = ORIENTED_EDGE ( 'NONE', *, *, #473, .T. ) ;
#1035 = EDGE_CURVE ( 'NONE', #244, #1031, #354, .T. ) ;
#1036 = EDGE_LOOP ( 'NONE', ( #556, #1091, #132, #929 ) ) ;
#1037 = DIRECTION ( 'NONE',  ( -1.000000000000000000, 0.000000000000000000, 0.000000000000000000 ) ) ;
#1038 = ORIENTED_EDGE ( 'NONE', *, *, #392, .F. ) ;
#1039 = DIRECTION ( 'NONE',  ( 1.000000000000000000, 0.000000000000000000, 0.000000000000000000 ) ) ;
#1040 = DIRECTION ( 'NONE',  ( 1.000000000000000000, 0.000000000000000000, 0.000000000000000000 ) ) ;
#1041 = VERTEX_POINT ( 'NONE', #259 ) ;
#1042 = VECTOR ( 'NONE', #370, 1000.000000000000114 ) ;
#1043 = EDGE_CURVE ( 'NONE', #527, #994, #641, .T. ) ;
#1044 = CARTESIAN_POINT ( 'NONE',  ( -118.3853032373009171, 47.54103706376712069, 95.27426911690423594 ) ) ;
#1045 = DIRECTION ( 'NONE',  ( 1.000000000000000000, 0.000000000000000000, 0.000000000000000000 ) ) ;
#1046 = DIRECTION ( 'NONE',  ( 0.000000000000000000, 0.000000000000000000, 1.000000000000000000 ) ) ;
#1047 = LINE ( 'NONE', #453, #1268 ) ;
#1048 = AXIS2_PLACEMENT_3D ( 'NONE', #345, #1029, #151 ) ;
#1049 = AXIS2_PLACEMENT_3D ( 'NONE', #164, #349, #522 ) ;
#1050 = DIRECTION ( 'NONE',  ( -1.000000000000000000, 0.000000000000000000, 0.000000000000000000 ) ) ;
#1051 = CARTESIAN_POINT ( 'NONE',  ( -176.5000000000000000, -72.40000343881547451, 103.0000000000000568 ) ) ;
#1052 = EDGE_CURVE ( 'NONE', #597, #1098, #578, .T. ) ;
#1053 = CARTESIAN_POINT ( 'NONE',  ( 0.000000000000000000, 104.0999965611844829, 103.2000000000000313 ) ) ;
#1054 = DIRECTION ( 'NONE',  ( -0.000000000000000000, -0.000000000000000000, -1.000000000000000000 ) ) ;
#1055 = AXIS2_PLACEMENT_3D ( 'NONE', #260, #1046, #82 ) ;
#1056 = ORIENTED_EDGE ( 'NONE', *, *, #294, .T. ) ;
#1057 = CARTESIAN_POINT ( 'NONE',  ( -119.9315279843711011, 46.05452454555432240, 104.0000000000000000 ) ) ;
#1058 = FACE_OUTER_BOUND ( 'NONE', #1036, .T. ) ;
#1059 = CIRCLE ( 'NONE', #1225, 1.477000000000006086 ) ;
#1060 = DIRECTION ( 'NONE',  ( 0.8660342776337551784, 0.4999846297271345330, 0.000000000000000000 ) ) ;
#1061 = VECTOR ( 'NONE', #417, 1000.000000000000000 ) ;
#1062 = CARTESIAN_POINT ( 'NONE',  ( -116.9775279843676259, 46.05452454555888409, 97.32112069894722595 ) ) ;
#1063 = VECTOR ( 'NONE', #413, 1000.000000000000000 ) ;
#1064 = CARTESIAN_POINT ( 'NONE',  ( -74.86400932125691554, 81.34114284186829025, 3.000000000000000000 ) ) ;
#1065 = EDGE_CURVE ( 'NONE', #422, #591, #814, .T. ) ;
#1066 = DIRECTION ( 'NONE',  ( 1.000000000000000000, 0.000000000000000000, 0.000000000000000000 ) ) ;
#1067 = DIRECTION ( 'NONE',  ( 1.000000000000000000, 0.000000000000000000, 0.000000000000000000 ) ) ;
#1068 = LINE ( 'NONE', #858, #859 ) ;
#1069 = CARTESIAN_POINT ( 'NONE',  ( 0.000000000000000000, 82.59999656118452549, 3.000000000000000000 ) ) ;
#1070 = EDGE_CURVE ( 'NONE', #1041, #1098, #468, .T. ) ;
#1071 = FACE_OUTER_BOUND ( 'NONE', #890, .T. ) ;
#1072 = EDGE_CURVE ( 'NONE', #102, #1235, #958, .T. ) ;
#1073 = DIRECTION ( 'NONE',  ( 1.000000000000000000, 0.000000000000000000, 0.000000000000000000 ) ) ;
#1074 = DIRECTION ( 'NONE',  ( 0.000000000000000000, 0.000000000000000000, 1.000000000000000000 ) ) ;
#1075 = LINE ( 'NONE', #573, #162 ) ;
#1076 = LINE ( 'NONE', #574, #588 ) ;
#1077 = ORIENTED_EDGE ( 'NONE', *, *, #891, .T. ) ;
#1078 = DIRECTION ( 'NONE',  ( 0.4999846297271345330, -0.8660342776337551784, 0.000000000000000000 ) ) ;
#1079 = FACE_OUTER_BOUND ( 'NONE', #267, .T. ) ;
#1080 = ADVANCED_FACE ( 'NONE', ( #376 ), #680, .F. ) ;
#1081 = CARTESIAN_POINT ( 'NONE',  ( -88.58456842346257076, 63.60275544026329442, 0.000000000000000000 ) ) ;
#1082 = CARTESIAN_POINT ( 'NONE',  ( -174.9999999999999716, -72.40000343881547451, 88.79999999999991189 ) ) ;
#1083 = CARTESIAN_POINT ( 'NONE',  ( -176.5000000000000000, -72.40000343881547451, 104.0000000000000000 ) ) ;
#1084 = ORIENTED_EDGE ( 'NONE', *, *, #500, .F. ) ;
#1085 = CARTESIAN_POINT ( 'NONE',  ( 0.000000000000000000, 0.000000000000000000, 0.000000000000000000 ) ) ;
#1086 = CARTESIAN_POINT ( 'NONE',  ( -117.1510353509592051, 45.35108984466786097, 97.69860241632849807 ) ) ;
#1087 = EDGE_CURVE ( 'NONE', #1136, #244, #385, .T. ) ;
#1088 = CARTESIAN_POINT ( 'NONE',  ( -119.0859752122514550, 49.12357030606708719, 44.85462584119514418 ) ) ;
#1089 = VERTEX_POINT ( 'NONE', #9 ) ;
#1090 = CARTESIAN_POINT ( 'NONE',  ( 0.000000000000000000, -72.40000343881547451, 102.0000000000000000 ) ) ;
#1091 = ORIENTED_EDGE ( 'NONE', *, *, #23, .F. ) ;
#1092 = AXIS2_PLACEMENT_3D ( 'NONE', #81, #1232, #650 ) ;
#1093 = ADVANCED_BREP_SHAPE_REPRESENTATION ( 'rightbottom', ( #547, #122 ), #996 ) ;
#1094 = VERTEX_POINT ( 'NONE', #1062 ) ;
#1095 = DIRECTION ( 'NONE',  ( 0.000000000000000000, 0.000000000000000000, -1.000000000000000000 ) ) ;
#1096 = ORIENTED_EDGE ( 'NONE', *, *, #630, .F. ) ;
#1097 = COLOUR_RGB ( '',0.7921568627450980005, 0.8196078431372548767, 0.9333333333333333481 ) ;
#1098 = VERTEX_POINT ( 'NONE', #389 ) ;
#1099 = LINE ( 'NONE', #409, #381 ) ;
#1100 = ORIENTED_EDGE ( 'NONE', *, *, #1133, .T. ) ;
#1101 = EDGE_CURVE ( 'NONE', #589, #163, #860, .T. ) ;
#1102 = AXIS2_PLACEMENT_3D ( 'NONE', #128, #901, #31 ) ;
#1103 = CIRCLE ( 'NONE', #827, 177.5000000000000568 ) ;
#1104 = AXIS2_PLACEMENT_3D ( 'NONE', #775, #848, #1155 ) ;
#1105 = ORIENTED_EDGE ( 'NONE', *, *, #846, .F. ) ;
#1106 = DIRECTION ( 'NONE',  ( 1.000000000000000000, 0.000000000000000000, 0.000000000000000000 ) ) ;
#1107 = ORIENTED_EDGE ( 'NONE', *, *, #699, .T. ) ;
#1108 = CARTESIAN_POINT ( 'NONE',  ( -118.5168069496795624, 44.57569095870431397, 97.27810413561233815 ) ) ;
#1109 = VERTEX_POINT ( 'NONE', #765 ) ;
#1110 = CARTESIAN_POINT ( 'NONE',  ( 0.000000000000000000, -72.40000343881547451, 53.79999999999999716 ) ) ;
#1111 = VERTEX_POINT ( 'NONE', #1082 ) ;
#1112 = CARTESIAN_POINT ( 'NONE',  ( -178.0000000000000284, -72.40000343881547451, 0.000000000000000000 ) ) ;
#1113 = EDGE_LOOP ( 'NONE', ( #518, #1019, #1024, #220 ) ) ;
#1114 = ADVANCED_FACE ( 'NONE', ( #283, #87 ), #273, .T. ) ;
#1115 = VECTOR ( 'NONE', #1020, 1000.000000000000114 ) ;
#1116 = COLOUR_RGB ( '',0.7921568627450980005, 0.8196078431372548767, 0.9333333333333333481 ) ;
#1117 = DIRECTION ( 'NONE',  ( -0.000000000000000000, -0.000000000000000000, 1.000000000000000000 ) ) ;
#1118 = ORIENTED_EDGE ( 'NONE', *, *, #392, .T. ) ;
#1119 = CARTESIAN_POINT ( 'NONE',  ( 0.000000000000000000, -72.40000343881547451, 102.0000000000000000 ) ) ;
#1120 = EDGE_LOOP ( 'NONE', ( #1192, #420, #464, #730 ) ) ;
#1121 = CYLINDRICAL_SURFACE ( 'NONE', #618, 1.100000000000003642 ) ;
#1122 = ADVANCED_FACE ( 'NONE', ( #396 ), #1178, .F. ) ;
#1123 = ORIENTED_EDGE ( 'NONE', *, *, #313, .F. ) ;
#1124 = DIRECTION ( 'NONE',  ( -0.000000000000000000, -0.000000000000000000, 1.000000000000000000 ) ) ;
#1125 = DIRECTION ( 'NONE',  ( 0.000000000000000000, 0.000000000000000000, 1.000000000000000000 ) ) ;
#1126 = ORIENTED_EDGE ( 'NONE', *, *, #1133, .F. ) ;
#1127 = ORIENTED_EDGE ( 'NONE', *, *, #30, .F. ) ;
#1128 = CARTESIAN_POINT ( 'NONE',  ( -118.8866051805959216, 47.47074425280272436, 94.97164570628493152 ) ) ;
#1129 = CIRCLE ( 'NONE', #32, 1.477000000000006086 ) ;
#1130 = ORIENTED_EDGE ( 'NONE', *, *, #1150, .F. ) ;
#1131 = DIRECTION ( 'NONE',  ( 0.000000000000000000, 0.000000000000000000, -1.000000000000000000 ) ) ;
#1132 = CARTESIAN_POINT ( 'NONE',  ( 0.000000000000000000, 82.59999656118452549, 0.000000000000000000 ) ) ;
#1133 = EDGE_CURVE ( 'NONE', #410, #1267, #1075, .T. ) ;
#1134 = ORIENTED_EDGE ( 'NONE', *, *, #542, .T. ) ;
#1135 = LINE ( 'NONE', #533, #117 ) ;
#1136 = VERTEX_POINT ( 'NONE', #1069 ) ;
#1137 = FACE_OUTER_BOUND ( 'NONE', #514, .T. ) ;
#1138 = VERTEX_POINT ( 'NONE', #1053 ) ;
#1139 = DIRECTION ( 'NONE',  ( 1.000000000000000000, 0.000000000000000000, 0.000000000000000000 ) ) ;
#1140 = CARTESIAN_POINT ( 'NONE',  ( 0.000000000000000000, 102.5999965611845397, 39.99999999999996447 ) ) ;
#1141 = ADVANCED_FACE ( 'NONE', ( #560 ), #94, .F. ) ;
#1142 = CYLINDRICAL_SURFACE ( 'NONE', #604, 178.0000000000000284 ) ;
#1143 = EDGE_LOOP ( 'NONE', ( #1126, #1216, #1034, #562, #1210, #49, #586, #208, #1173, #181, #215, #257, #1105, #252, #75, #638, #777, #915 ) ) ;
#1144 = CARTESIAN_POINT ( 'NONE',  ( -119.7576006031721931, 46.75872150292280338, 94.86014733181563940 ) ) ;
#1145 = DIRECTION ( 'NONE',  ( -1.000000000000000000, 0.000000000000000000, 0.000000000000000000 ) ) ;
#1146 = DIRECTION ( 'NONE',  ( -1.000000000000000000, 0.000000000000000000, 0.000000000000000000 ) ) ;
#1147 = ORIENTED_EDGE ( 'NONE', *, *, #219, .F. ) ;
#1148 = CARTESIAN_POINT ( 'NONE',  ( 0.000000000000000000, -72.40000343881547451, 279.6999999999999886 ) ) ;
#1149 = CARTESIAN_POINT ( 'NONE',  ( -71.51730331720412437, 73.45614166871949635, 3.000000000000000000 ) ) ;
#1150 = EDGE_CURVE ( 'NONE', #232, #565, #496, .T. ) ;
#1151 = DIRECTION ( 'NONE',  ( -1.000000000000000000, 0.000000000000000000, 0.000000000000000000 ) ) ;
#1152 = CARTESIAN_POINT ( 'NONE',  ( 0.000000000000000000, 104.0999965611845113, 104.0000000000000000 ) ) ;
#1153 = DIRECTION ( 'NONE',  ( 0.000000000000000000, 1.000000000000000000, 0.000000000000000000 ) ) ;
#1154 = ORIENTED_EDGE ( 'NONE', *, *, #1253, .T. ) ;
#1155 = DIRECTION ( 'NONE',  ( -1.000000000000000000, 0.000000000000000000, 0.000000000000000000 ) ) ;
#1156 = VECTOR ( 'NONE', #1170, 1000.000000000000000 ) ;
#1157 = CARTESIAN_POINT ( 'NONE',  ( -75.61717728096662938, 80.55762274531630851, 3.000000000000000000 ) ) ;
#1158 = EDGE_CURVE ( 'NONE', #480, #386, #317, .T. ) ;
#1159 = CARTESIAN_POINT ( 'NONE',  ( 0.000000000000000000, 92.59999656118453970, 53.00000000000000711 ) ) ;
#1160 = DIRECTION ( 'NONE',  ( 1.000000000000000000, 0.000000000000000000, 0.000000000000000000 ) ) ;
#1161 = CARTESIAN_POINT ( 'NONE',  ( -118.8383371425997836, 48.28807912218735510, 45.62419403270825313 ) ) ;
#1162 = VECTOR ( 'NONE', #274, 1000.000000000000000 ) ;
#1163 = VERTEX_POINT ( 'NONE', #364 ) ;
#1164 = CARTESIAN_POINT ( 'NONE',  ( -120.3153371425997875, 48.28807912218735510, 43.00000000000000000 ) ) ;
#1165 = DIRECTION ( 'NONE',  ( -0.000000000000000000, -0.000000000000000000, -1.000000000000000000 ) ) ;
#1166 = CIRCLE ( 'NONE', #22, 1.477000000000006086 ) ;
#1167 = CARTESIAN_POINT ( 'NONE',  ( -119.3033773635331443, 49.37680024335750772, 44.52159771674622846 ) ) ;
#1168 = EDGE_CURVE ( 'NONE', #994, #330, #357, .T. ) ;
#1169 = CIRCLE ( 'NONE', #660, 176.5000000000000000 ) ;
#1170 = DIRECTION ( 'NONE',  ( 0.7071067811865597852, -0.000000000000000000, -0.7071067811865352493 ) ) ;
#1171 = FILL_AREA_STYLE ('',( #567 ) ) ;
#1172 = EDGE_CURVE ( 'NONE', #341, #311, #677, .T. ) ;
#1173 = ORIENTED_EDGE ( 'NONE', *, *, #585, .F. ) ;
#1174 = LINE ( 'NONE', #1259, #1042 ) ;
#1175 = AXIS2_PLACEMENT_3D ( 'NONE', #1185, #553, #759 ) ;
#1176 = CARTESIAN_POINT ( 'NONE',  ( -119.3339107929169387, 44.85601606083189097, 96.49920935520479759 ) ) ;
#1177 = PLANE ( 'NONE',  #797 ) ;
#1178 = CYLINDRICAL_SURFACE ( 'NONE', #127, 1.477000000000006086 ) ;
#1179 = CARTESIAN_POINT ( 'NONE',  ( 0.000000000000000000, -72.40000343881547451, 103.0000000000000568 ) ) ;
#1180 = ORIENTED_EDGE ( 'NONE', *, *, #414, .F. ) ;
#1181 = EDGE_CURVE ( 'NONE', #102, #527, #1174, .T. ) ;
#1182 = DIRECTION ( 'NONE',  ( 0.000000000000000000, 0.000000000000000000, 1.000000000000000000 ) ) ;
#1183 = CIRCLE ( 'NONE', #74, 175.0000000000000284 ) ;
#1184 = CARTESIAN_POINT ( 'NONE',  ( 0.000000000000000000, -72.40000343881547451, 50.00000000000000000 ) ) ;
#1185 = CARTESIAN_POINT ( 'NONE',  ( 0.000000000000000000, -72.40000343881547451, 104.0000000000000000 ) ) ;
#1186 = CARTESIAN_POINT ( 'NONE',  ( 0.000000000000000000, -72.40000343881547451, -171.1999999999760007 ) ) ;
#1187 = ORIENTED_EDGE ( 'NONE', *, *, #235, .F. ) ;
#1188 = SURFACE_STYLE_USAGE ( .BOTH. , #598 ) ;
#1189 = CYLINDRICAL_SURFACE ( 'NONE', #277, 155.0000000000000000 ) ;
#1190 = DIRECTION ( 'NONE',  ( 0.000000000000000000, 0.000000000000000000, 1.000000000000000000 ) ) ;
#1191 = CARTESIAN_POINT ( 'NONE',  ( -120.1844654633523106, 46.81372186385419809, 45.71853852136595719 ) ) ;
#1192 = ORIENTED_EDGE ( 'NONE', *, *, #114, .F. ) ;
#1193 = CARTESIAN_POINT ( 'NONE',  ( 0.000000000000000000, -72.40000343881547451, 103.2000000000000313 ) ) ;
#1194 = EDGE_CURVE ( 'NONE', #508, #531, #761, .T. ) ;
#1195 = FACE_OUTER_BOUND ( 'NONE', #1113, .T. ) ;
#1196 = VECTOR ( 'NONE', #817, 1000.000000000000000 ) ;
#1197 = ORIENTED_EDGE ( 'NONE', *, *, #272, .F. ) ;
#1198 = FILL_AREA_STYLE_COLOUR ( '', #1116 ) ;
#1199 = EDGE_LOOP ( 'NONE', ( #668, #225 ) ) ;
#1200 = ADVANCED_FACE ( 'NONE', ( #546 ), #954, .F. ) ;
#1201 = ORIENTED_EDGE ( 'NONE', *, *, #1043, .F. ) ;
#1202 = CARTESIAN_POINT ( 'NONE',  ( 0.000000000000000000, -72.40000343881547451, 104.0000000000000000 ) ) ;
#1203 = VERTEX_POINT ( 'NONE', #755 ) ;
#1204 = VECTOR ( 'NONE', #191, 1000.000000000000000 ) ;
#1205 = DIRECTION ( 'NONE',  ( -0.000000000000000000, -0.000000000000000000, -1.000000000000000000 ) ) ;
#1206 = EDGE_LOOP ( 'NONE', ( #261, #230, #486, #838 ) ) ;
#1207 = DIRECTION ( 'NONE',  ( 0.000000000000000000, 0.000000000000000000, 1.000000000000000000 ) ) ;
#1208 = ADVANCED_FACE ( 'NONE', ( #1071 ), #89, .F. ) ;
#1209 = ORIENTED_EDGE ( 'NONE', *, *, #313, .T. ) ;
#1210 = ORIENTED_EDGE ( 'NONE', *, *, #497, .T. ) ;
#1211 = DIRECTION ( 'NONE',  ( 0.000000000000000000, 0.000000000000000000, -1.000000000000000000 ) ) ;
#1212 = AXIS2_PLACEMENT_3D ( 'NONE', #8, #1182, #85 ) ;
#1213 = ORIENTED_EDGE ( 'NONE', *, *, #748, .T. ) ;
#1214 = CARTESIAN_POINT ( 'NONE',  ( -118.4545279843710830, 46.05452454555432240, 104.0000000000000000 ) ) ;
#1215 = EDGE_LOOP ( 'NONE', ( #606, #643, #736, #987 ) ) ;
#1216 = ORIENTED_EDGE ( 'NONE', *, *, #855, .F. ) ;
#1217 = CIRCLE ( 'NONE', #55, 155.0000000000000000 ) ;
#1218 = EDGE_CURVE ( 'NONE', #722, #40, #534, .T. ) ;
#1219 = ORIENTED_EDGE ( 'NONE', *, *, #525, .F. ) ;
#1220 = AXIS2_PLACEMENT_3D ( 'NONE', #974, #1078, #103 ) ;
#1221 = DIRECTION ( 'NONE',  ( -0.000000000000000000, -0.000000000000000000, -1.000000000000000000 ) ) ;
#1222 = ORIENTED_EDGE ( 'NONE', *, *, #1238, .F. ) ;
#1223 = CARTESIAN_POINT ( 'NONE',  ( 0.000000000000000000, 0.000000000000000000, 0.000000000000000000 ) ) ;
#1224 = CARTESIAN_POINT ( 'NONE',  ( -119.9315279843711011, 46.05452454555432240, 98.99999999999998579 ) ) ;
#1225 = AXIS2_PLACEMENT_3D ( 'NONE', #663, #387, #269 ) ;
#1226 = CIRCLE ( 'NONE', #1102, 1.099999999999989875 ) ;
#1227 = VECTOR ( 'NONE', #1153, 1000.000000000000000 ) ;
#1228 = VERTEX_POINT ( 'NONE', #1057 ) ;
#1229 = ADVANCED_FACE ( 'NONE', ( #557 ), #569, .T. ) ;
#1230 = DIRECTION ( 'NONE',  ( -1.000000000000000000, 0.000000000000000000, 0.000000000000000000 ) ) ;
#1231 = EDGE_LOOP ( 'NONE', ( #881, #42, #742, #733 ) ) ;
#1232 = DIRECTION ( 'NONE',  ( 0.000000000000000000, 0.000000000000000000, 1.000000000000000000 ) ) ;
#1233 = LINE ( 'NONE', #959, #899 ) ;
#1234 = EDGE_LOOP ( 'NONE', ( #902, #236, #1209, #973 ) ) ;
#1235 = VERTEX_POINT ( 'NONE', #470 ) ;
#1236 = ORIENTED_EDGE ( 'NONE', *, *, #316, .F. ) ;
#1237 = CARTESIAN_POINT ( 'NONE',  ( 0.000000000000000000, 89.59999656118452549, 104.0000000000000000 ) ) ;
#1238 = EDGE_CURVE ( 'NONE', #947, #799, #895, .T. ) ;
#1239 = VERTEX_POINT ( 'NONE', #961 ) ;
#1240 = DIRECTION ( 'NONE',  ( 0.000000000000000000, 0.000000000000000000, -1.000000000000000000 ) ) ;
#1241 = CARTESIAN_POINT ( 'NONE',  ( 0.000000000000000000, -72.40000343881547451, 104.0000000000000000 ) ) ;
#1242 = ORIENTED_EDGE ( 'NONE', *, *, #1181, .F. ) ;
#1243 = CARTESIAN_POINT ( 'NONE',  ( -117.1384860045541956, 46.74694248890336468, 96.71494713424742429 ) ) ;
#1244 = CARTESIAN_POINT ( 'NONE',  ( -174.2000000000001876, -72.40000343881547451, 3.000000000000000000 ) ) ;
#1245 = LINE ( 'NONE', #1258, #653 ) ;
#1246 = CARTESIAN_POINT ( 'NONE',  ( -92.68444238722507578, 70.70423651686009237, 3.000000000000000000 ) ) ;
#1247 = DIRECTION ( 'NONE',  ( 0.000000000000000000, 0.000000000000000000, -1.000000000000000000 ) ) ;
#1248 = DIRECTION ( 'NONE',  ( -0.000000000000000000, -0.000000000000000000, -1.000000000000000000 ) ) ;
#1249 = FACE_BOUND ( 'NONE', #96, .T. ) ;
#1250 = CARTESIAN_POINT ( 'NONE',  ( -155.0000000000000000, -72.40000343881547451, 3.000000000000000000 ) ) ;
#1251 = ORIENTED_EDGE ( 'NONE', *, *, #322, .F. ) ;
#1252 =( NAMED_UNIT ( * ) PLANE_ANGLE_UNIT ( ) SI_UNIT ( $, .RADIAN. ) );
#1253 = EDGE_CURVE ( 'NONE', #213, #320, #1047, .T. ) ;
#1254 = CARTESIAN_POINT ( 'NONE',  ( -118.8383371425997836, 48.28807912218735510, 53.00000000000000711 ) ) ;
#1255 = VECTOR ( 'NONE', #71, 1000.000000000000000 ) ;
#1256 = CARTESIAN_POINT ( 'NONE',  ( -121.1526565183471718, 49.51034784429469227, 43.12770275316794510 ) ) ;
#1257 = DIRECTION ( 'NONE',  ( 0.000000000000000000, -0.000000000000000000, 1.000000000000000000 ) ) ;
#1258 = CARTESIAN_POINT ( 'NONE',  ( -91.46827850878091226, 63.09261766642882918, 3.000000000000000000 ) ) ;
#1259 = CARTESIAN_POINT ( 'NONE',  ( -75.61717728096662938, 80.55762274531630851, 3.000000000000000000 ) ) ;
#1260 = VECTOR ( 'NONE', #155, 1000.000000000000000 ) ;
#1261 = CARTESIAN_POINT ( 'NONE',  ( -119.9315279843711153, 45.95809035575213386, 95.30013334142674353 ) ) ;
#1262 = ORIENTED_EDGE ( 'NONE', *, *, #30, .T. ) ;
#1263 = FACE_OUTER_BOUND ( 'NONE', #374, .T. ) ;
#1264 = CARTESIAN_POINT ( 'NONE',  ( -118.5051005066810603, 45.32892584348164888, 0.000000000000000000 ) ) ;
#1265 = CARTESIAN_POINT ( 'NONE',  ( 0.000000000000000000, -72.40000343881547451, 214.9999999999989768 ) ) ;
#1266 = VECTOR ( 'NONE', #773, 1000.000000000000000 ) ;
#1267 = VERTEX_POINT ( 'NONE', #877 ) ;
#1268 = VECTOR ( 'NONE', #661, 1000.000000000000000 ) ;
ENDSEC;
END-ISO-10303-21;
