0
SECTION
2
HEADER
9
$INSUNITS
70
4
9
$ACADVER
1
AC1014
9
$HANDSEED
5
FFFF
0
ENDSEC
0
SECTION
2
TABLES
0
TABLE
2
VPORT
5
8
100
AcDbSymbolTable
0
ENDTAB
0
TABLE
2
LTYPE
5
5
100
AcDbSymbolTable
0
LTYPE
5
14
100
AcDbSymbolTableRecord
100
AcDbLinetypeTableRecord
2
BYBLOCK
70
0
0
LTYPE
5
15
100
AcDbSymbolTableRecord
100
AcDbLinetypeTableRecord
2
BYLAYER
70
0
0
LTYPE
5
16
100
AcDbSymbolTableRecord
100
AcDbLinetypeTableRecord
2
DASHED
70
0
3
Dashed __ __ __ __ __ __ __ __ __ __ __ __ __ _
72
65
73
2
40
0.75
49
0.5
74
0
49
-0.25
74
0
0
ENDTAB
0
TABLE
2
LAYER
5
2
100
AcDbSymbolTable
70
2
0
LAYER
5
50
100
AcDbSymbolTableRecord
100
AcDbLayerTableRecord
2
0
70
0
62
7
6
CONTINUOUS
0
ENDTAB
0
TABLE
2
STYLE
5
3
100
AcDbSymbolTable
70
1
0
STYLE
5
11
100
AcDbSymbolTableRecord
100
AcDbTextStyleTableRecord
2
STANDARD
70
0
0
ENDTAB
0
TABLE
2
VIEW
5
6
100
AcDbSymbolTable
70
0
0
ENDTAB
0
TABLE
2
UCS
5
7
100
AcDbSymbolTable
70
0
0
ENDTAB
0
TABLE
2
APPID
5
9
100
AcDbSymbolTable
70
2
0
APPID
5
12
100
AcDbSymbolTableRecord
100
AcDbRegAppTableRecord
2
ACAD
70
0
0
ENDTAB
0
TABLE
2
DIMSTYLE
5
A
100
AcDbSymbolTable
70
1
0
ENDTAB
0
TABLE
2
BLOCK_RECORD
5
1
100
AcDbSymbolTable
70
1
0
BLOCK_RECORD
5
1F
100
AcDbSymbolTableRecord
100
AcDbBlockTableRecord
2
*MODEL_SPACE
0
BLOCK_RECORD
5
1B
100
AcDbSymbolTableRecord
100
AcDbBlockTableRecord
2
*PAPER_SPACE
0
ENDTAB
0
ENDSEC
0
SECTION
2
BLOCKS
0
BLOCK
5
20
100
AcDbEntity
100
AcDbBlockBegin
2
*MODEL_SPACE
0
ENDBLK
5
21
100
AcDbEntity
100
AcDbBlockEnd
0
BLOCK
5
1C
100
AcDbEntity
100
AcDbBlockBegin
2
*PAPER_SPACE
0
ENDBLK
5
1D
100
AcDbEntity
100
AcDbBlockEnd
0
ENDSEC
0
SECTION
2
ENTITIES
0
POINT
5
100
100
AcDbEntity
8
0
100
AcDbPoint
10
100.3822933126731
20
51.482800312830392
30
0
0
LWPOLYLINE
5
101
100
AcDbEntity
8
0
100
AcDbPolyline
90
18
70
1
43
0.0
10
124.51505228473033
20
81.911868243280537
10
126.96511572895528
20
84.16638986556309
42
1.0424275095427991
10
121.66638986555823
20
89.465115728960171
10
119.89657431299949
20
87.644922519987006
42
-0.40097374482234438
10
117.13496099946313
20
87.543418154477095
42
0.16903375458896339
10
92.500000000000313
20
97.700000000005417
42
0.41291400948222762
10
44.499999999999496
20
55.000000000006104
42
0.17472439593763683
10
53.680968069019983
20
23.70582641742601
42
-0.37945042510774724
10
53.431881503677204
20
21.064003328085409
10
50.872215434659083
20
18.672461517724635
42
1.0345325568783617
10
56.172461517717792
20
13.372215434665776
10
58.246434789868943
20
15.591988047369822
42
-0.40321845105276
10
61.017203657599453
20
15.738380986775681
42
0.18036089777995351
10
92.499999999998948
20
4.0000000000054303
10
141.79999999999905
20
4.0000000000047393
10
141.79999999999984
20
60.50000000000469
10
130.62897365707656
20
60.500000000004839
42
0.1247471833693997
10
124.19336762819233
20
79.348725213329118
42
-0.36621157651723657
0
CIRCLE
5
102
100
AcDbEntity
8
0
100
AcDbCircle
10
92.499999999999687
20
55.000000000005414
30
1.7763568394002505e-14
40
30.000000000000068
210
-1.5022253577161296e-32
220
3.1554436208840472e-30
230
1
0
CIRCLE
5
103
100
AcDbEntity
8
0
100
AcDbCircle
10
124.42587117057271
20
86.925871170577608
30
0
40
2.149999999999995
210
-1.1362986672978777e-31
220
3.1554436208840486e-30
230
1
0
CIRCLE
5
104
100
AcDbEntity
8
0
100
AcDbCircle
10
53.432350339442337
20
15.932350339449094
30
0
40
2.1500000000000248
210
-1.5022253577161296e-32
220
3.1554436208840479e-30
230
1
0
CIRCLE
5
105
100
AcDbEntity
8
0
100
AcDbCircle
10
92.500144576275645
20
54.998028558435372
30
0
40
31.796728722273919
210
-0
220
0
230
1
0
CIRCLE
5
106
100
AcDbEntity
8
0
100
AcDbCircle
10
100.3822933126731
20
51.482800312830392
30
0
40
19.996983940997378
210
-0
220
0
230
1
0
CIRCLE
5
107
100
AcDbEntity
8
0
100
AcDbCircle
10
92.500144576275645
20
54.998028558435372
30
0
40
36.796728722273926
210
-0
220
0
230
1
0
LWPOLYLINE
5
108
100
AcDbEntity
8
0
100
AcDbPolyline
90
4
70
1
43
0.0
10
122.00000181794167
20
74.000001102685928
10
78.764584807404532
20
74.000001102685928
10
78.764584807404532
20
28.965599522974852
10
122.00000181794167
20
28.965599522974852
0
LINE
5
109
100
AcDbEntity
8
0
100
AcDbLine
10
122.00000181794167
20
74.000001102685928
30
0
11
78.764584807404532
21
28.965599522974852
31
0
6
DASHED
0
LINE
5
110
100
AcDbEntity
8
0
100
AcDbLine
10
78.764584807404532
20
74.000001102685928
30
0
11
122.00000181794167
21
28.965599522974852
31
0
6
DASHED
0
ENDSEC
0
SECTION
2
OBJECTS
0
DICTIONARY
5
C
100
AcDbDictionary
3
ACAD_GROUP
350
D
3
ACAD_MLINESTYLE
350
17
0
DICTIONARY
5
D
100
AcDbDictionary
0
DICTIONARY
5
1A
330
C
100
AcDbDictionary
0
DICTIONARY
5
17
100
AcDbDictionary
0
ENDSEC
0
EOF
